<svg id="Capa_1" enable-background="new 0 0 512 512" height="512" viewBox="0 0 512 512" width="512" xmlns="http://www.w3.org/2000/svg" xmlns:xlink="http://www.w3.org/1999/xlink"><linearGradient id="SVGID_1_" gradientUnits="userSpaceOnUse" x1="256" x2="256" y1="512" y2="0"><stop offset="0" stop-color="#a93aff"/><stop offset="1" stop-color="#ff81ff"/></linearGradient><linearGradient id="SVGID_2_" gradientUnits="userSpaceOnUse" x1="284.887" x2="284.887" y1="450" y2="300"><stop offset="0" stop-color="#ffbef9"/><stop offset="1" stop-color="#fff1ff"/></linearGradient><g><g><g><path d="m449.038 66.05c-29.154-9.475-52.305 46.138-64.512 74.839 4.453-114.902-17.754-117.861-27.363-119.136-28.676-3.816-40.932 51.654-47.842 81.196-9.668-102.949-29.473-102.949-39.434-102.949-10.576 0-32.344.015-41.162 123.955-24.58-91.948-45.029-89.004-53.877-87.627-39.814 5.716-31.326 66.128-.908 263.262-94.688-68.994-112.998-63.135-124.102-49.775-7.295 8.76-26.689 32.021 126.855 175.459 13.506 12.598 30.264 20.728 48.193 23.584v48.142c0 8.291 6.709 15 15 15h120c8.291 0 15-6.709 15-15v-49.476c16.611-5.625 29.209-20.376 31.406-38.613.469-3.691 11.543-91.948 42.51-206.807 28.009-103.637 20.363-129.345.236-136.054z" fill="url(#SVGID_1_)"/></g></g><g><g><path d="m239.887 360c-8.284 0-15 6.716-15 15s6.716 15 15 15 15-6.716 15-15-6.715-15-15-15zm30-60c-8.284 0-15 6.716-15 15s6.716 15 15 15 15-6.716 15-15-6.715-15-15-15zm60 30c8.284 0 15-6.716 15-15s-6.716-15-15-15-15 6.716-15 15 6.716 15 15 15zm-30 90c-8.284 0-15 6.716-15 15s6.716 15 15 15 15-6.716 15-15-6.715-15-15-15zm30-60c-8.284 0-15 6.716-15 15s6.716 15 15 15 15-6.716 15-15-6.715-15-15-15z" fill="url(#SVGID_2_)"/></g></g></g></svg>