<svg id="Layer_1" enable-background="new 0 0 511.989 511.989" height="512" viewBox="0 0 511.989 511.989" width="512" xmlns="http://www.w3.org/2000/svg"><g><path d="m83.187 440.654c23.083 22.969 50.721 41.359 81.437 53.714l78.482 17.284c4.268.221 8.565.337 12.888.337 4.322 0 8.618-.115 12.885-.336l78.482-17.283c30.717-12.354 58.355-30.744 81.439-53.713l30.712-37.23c26.195-38.996 41.484-85.931 41.484-136.439 0-135.311-109.691-245.002-245.002-245.002s-245.001 109.69-245.001 245.001c0 50.508 15.289 97.442 41.484 136.439z" fill="#2a428c"/><path d="m294.765 463.951c3.263 0 3.776 5.126 4.344 13.489.623 9.198 1.464 21.43 9.223 28.929 13.454-2.931 26.499-6.96 39.03-12-.019-27.204-2.01-65.467-11.354-93.874-1.845-5.609-3.213-11.903-4.198-18.641-7.107 35.751-21.732 65.059-40.447 81.799 1.055.184 2.177.298 3.402.298z" fill="#ffc7ab"/><path d="m294.765 462.451c-.693 0-1.344-.04-1.971-.103-8.452 7.94-17.773 13.299-27.645 15.465l-.719.012c.265.535.49 1.108.658 1.729.144.527.249 1.07.312 1.628l3.479 30.47c14.087-.73 27.855-2.659 41.212-5.672-14.911-12.937-4.893-43.529-15.326-43.529z" fill="#ffaa7b"/><path d="m179.477 386.176c-.906 5.113-2.054 9.928-3.498 14.319-9.344 28.406-11.336 66.669-11.355 93.873 24.457 9.837 50.862 15.853 78.482 17.284l3.479-30.47c.064-.558.169-1.102.312-1.628.139-.509.316-.986.521-1.438l-.654.011c-30.732-5.688-56.382-42.147-67.287-91.951z" fill="#ffaa7b"/><path d="m457.455 402.998c-12.92-2.907-13.566-8.156-13.566-8.156-12.269-35.621-22.599-56.753-28.76-67.779-4.403-7.88-7.685-16.324-9.734-25.115-10.134-43.471-21.567-97.373-32.808-120.286-12.597-25.678-45.301-17.442-62.743-22.045-4.512-1.191-8.249-2.787-11.308-4.499-7.268-4.067-12.053-11.466-12.934-19.748l-.834-7.836c-.627-6.235 2.295-12.254 7.506-15.735 14.57-9.734 24.924-25.675 26.832-44.746 3.231-32.3-19.925-61.701-52.05-66.354-3.291-.477-6.579-.696-9.84-.697-1.18 1.86-2.31 4.406-2.239 7.285.068 2.781 1.225 5.352 3.445 7.663-2.272 1.733-6.562 5.478-9.942 11.192-4.271 7.219-7.78 18.994-.71 34.466-1.974 1.338-6.025 4.454-9.214 9.342-3.997 6.126-7.311 16.247-.394 29.673 9.742 18.91 6.715 33.63 3.756 38.767l-.162.277-1.815 16.943 10.071 13.54c-2.306 4.607-4.038 13.22 2.788 19.202-.616.558-1.362 1.3-2.129 2.195 1.497-.147 3.005-.228 4.523-.228 36.858 0 67.984 44.082 77.982 104.522 1.23-10.648 2.601-20.171 3.783-27.64.639-4.041 6.293-4.421 7.474-.504 5.129 17.011 11.853 35.672 24.522 56.924 19.081 32.007 23.5 59.469 46.786 84.9 2.371 2.59 4.098 5.697 5.074 9.07 1.664 5.751 4.59 15.158 7.987 23.065 11.409-11.353 21.705-23.822 30.712-37.23-.769-.15-1.465-.294-2.059-.428z" fill="#ffc7ab"/><path d="m252.856 190.385c1.304-1.33 2.336-2.066 2.336-2.066-10.427-7.243-3.408-19.298-3.408-19.298l-10.29-13.835 1.718-16.04s9.032-15.46-3.718-40.21 10.196-37.771 10.196-37.771c-14.583-29.949 11.097-46.056 11.097-46.056-6.855-5.763-4.029-11.947-1.776-15.085-28.241-.749-54.73 15.958-61.837 43.058-.688 2.623-.9 5.35-.604 8.045l.326 2.956c.338 3.073-.844 6.113-3.16 8.162-7.266 6.427-15.483 14.097-15.81 16.19-.507 3.238 6.97 7.466 9.121 8.61.343.183.528.56.468.944l-.841 5.373c-.067.428.062.864.35 1.188l3.262 3.654c.294.329.371.797.198 1.203l-.507 1.193c-.553 1.3-.369 2.797.483 3.925l2.281 3.019c1.419 1.879 2.015 4.253 1.651 6.579l-.482 3.081c-.536 3.427-.025 6.937 1.468 10.069 1.53 3.213 4.551 5.464 8.053 6.094 2.774.499 5.645.487 8.455-.025l7.66-1.395c1.247-.227 2.482.459 2.947 1.639l.889 3.558c1.365 5.461-.538 11.278-4.992 14.72-3.659 2.827-8.934 5.822-16.249 7.753-17.442 4.603-50.145-3.634-62.742 22.045-11.24 22.913-22.674 76.815-32.808 120.286-2.049 8.791-5.331 17.235-9.734 25.115-6.161 11.026-16.49 32.158-28.76 67.779 0 0-.646 5.249-13.566 8.156-.594.134-1.288.277-2.055.427 9.007 13.408 19.302 25.877 30.71 37.229 3.397-7.907 6.322-17.312 7.986-23.063.976-3.373 2.702-6.48 5.074-9.07 23.286-25.431 27.705-52.893 46.786-84.9 12.669-21.252 19.393-39.913 24.522-56.924 1.181-3.917 6.835-3.537 7.474.504.978 6.182 2.085 13.778 3.136 22.245 10.677-56.39 39.958-97.299 74.692-99.061z" fill="#ffaa7b"/><path d="m252.758 188.391c-2.245 2.046-6.153 6.397-6.643 12.251-.406 4.853 1.615 9.616 6.008 14.165l2.32 37.731c-2.003 1.319-6.999 5.154-8.161 11.207-.869 4.524.59 9.219 4.335 13.96v13.889c-.503.555-1.153 1.495-1.23 2.71-.051.814.146 2.043 1.339 3.229 1.163 1.647 2.091 15.176 2.308 27.033-.798.85-2.186 2.658-2.253 5.013-.058 2.052.863 3.982 2.739 5.739.854.8 1.278 1.72 1.297 2.815.05 2.865-2.698 6.266-3.761 7.334l-.309.312-.094.426c-.13.59-3.163 14.622-2.077 30.6 1.427 21.006 9.45 35.285 23.224 41.377v24.492l7.34 8.28c.565 4.558 4.142 12.228 14.144 12.929 17.946-17.135 31.904-45.982 38.705-80.893-4.192-27.242-1.867-62.145 1.325-89.327-9.85-60.863-41.094-105.343-78.12-105.343-.816-.001-1.627.028-2.436.071z" fill="#f9a0b1"/><path d="m179.272 387.268c10.79 50.271 36.572 87.137 67.493 92.859.041-.192.082-.385.133-.573 2.453-9.007 15.737-9.007 18.19 0 .023.085.039.173.06.259 10.643-2.336 20.65-8.37 29.614-17.362-13.227-.002-14.182-12.132-14.182-12.132l-7.282-8.216v-24.915c-33.696-13.748-21.182-70.662-21.182-70.662s7.526-7.526 2.427-12.304c-5.099-4.777 0-9.037 0-9.037s-.424-26.375-2.716-28.667.289-4.29.289-4.29v-15.053c-12.211-14.926 3.878-23.836 3.878-23.836l-2.409-39.186c-14.429-14.428 1.607-25.836 1.607-25.836-35.915 0-66.391 41.851-77.178 99.91 3.681 29.216 6.754 69.466 1.258 99.041z" fill="#ff7186"/><path d="m258.374 14.989c-2.282 1.748-6.535 5.476-9.894 11.154-4.253 7.188-7.746 18.894-.797 34.268l7.451 2.799c3.715 1.396 7.132 3.481 10.072 6.146l8.514 7.718c10.899 9.88 28.919 3.352 30.444-11.341.006-.057.012-.115.018-.172 2.41-24.093-15.208-46.53-39.275-50.016-2.197-.318-4.378-.501-6.533-.556z" fill="#f9a0b1"/><path d="m226.102 52.302 23.588 8.863c-14.36-29.491 10.321-45.56 11.079-46.044-15.94-1.107-30.739 4.796-40.118 15.231-6.432 7.155-3.555 18.566 5.451 21.95z" fill="#ff7186"/><path d="m273.277 137.858c-1.358-1.871-4.337-1.017-4.501 1.289-.274 3.857-1.703 8.554-6.114 12.562-2.422 2.2-5.669 2.954-8.689 2.324-1.148 1.151-2.767 3.238-3.008 6.069-.231 2.711.848 5.408 3.184 8.032 2.034-.448 4.189-.162 6.056.888 2.085 1.172 4.56 3.114 6.482 6.272 1.464 2.405 4.866 2.717 6.671.556 5.55-6.646 12.766-20.295-.081-37.992z" fill="#ff7186"/><circle cx="270.391" cy="75.522" fill="#ffdd40" r="16.75"/><g><path d="m273.214 210.677c-4.802-2.773-11.93.048-18.021 6.445 2.097 2.202 4.072 4.826 5.785 7.794 4.915 8.514 6.319 17.469 4.163 23.103 2.785-2.516 5.432-5.773 7.645-9.606 6.692-11.59 6.884-24.009.428-27.736z" fill="#ffc839"/></g><g><path d="m236.955 449.076c-.633 0-1.275-.15-1.873-.468-1.951-1.036-2.693-3.458-1.657-5.409 5.032-9.478 4.555-14.312 3.823-16.35-.582-1.62-1.611-2.267-1.621-2.271-2.041-.846-3.01-3.185-2.164-5.227.846-2.04 3.188-3.008 5.227-2.164.432.179 4.268 1.893 6.087 6.956 2.095 5.832.653 13.505-4.286 22.807-.718 1.355-2.103 2.126-3.536 2.126z" fill="#ffdd40"/></g><g><path d="m252.116 346.527c-19.12 0-34.675-15.556-34.675-34.675s15.555-34.675 34.675-34.675c4.157 0 7.526 3.369 7.526 7.526s-3.37 7.526-7.526 7.526c-10.82 0-19.622 8.802-19.622 19.622s8.803 19.622 19.622 19.622c4.157 0 7.526 3.369 7.526 7.526.001 4.158-3.369 7.528-7.526 7.528z" fill="#ff4155"/></g><path d="m308.569 301.658c-2.147-3.125-6.172-4.296-9.687-2.873-3.292 1.332-7.243 2.651-11.885 3.749-6.698 1.585-12.628 1.056-17.325-.143-2.886-.737-5.523-2.154-7.936-3.898-2.935-2.122-6.594-3.302-10.541-3.086-8.332.456-15.148 7.333-15.531 15.669-.434 9.45 6.312 14.512 16.453 17.249 21.576 5.238 43.796-8.181 54.359-15.483 3.658-2.53 4.611-7.519 2.093-11.184z" fill="#ffdd40"/><path d="m313.422 346.028c-3.767-7.912-13.776-10.473-20.841-5.288-6.001 4.404-7.317 12.644-3.351 18.943 3.237 5.142 5.085 12.468 1.037 22.076-1.693 4.019-.071 8.676 3.66 10.935 3.481 2.109 7.94 1.593 10.853-1.249 5.448-5.314 13.091-14.898 13.091-26.84 0-7.047-1.986-13.403-4.449-18.577z" fill="#ff7186"/><g><path d="m275.275 406.411c-2.209 0-4-1.791-4-4v-30.924c0-6.825 3.615-12.486 10.454-16.371 4.749-2.697 9.484-3.587 9.684-3.624 2.168-.403 4.258 1.041 4.656 3.213.398 2.169-1.035 4.25-3.202 4.654-.038.007-3.768.729-7.347 2.805-4.202 2.437-6.245 5.486-6.245 9.323v30.924c0 2.209-1.791 4-4 4z" fill="#ffdd40"/></g><path d="m299.291 348.095c-4.156 0-7.556-3.4-7.556-7.556 0-4.156 3.4-7.556 7.556-7.556 4.156 0 7.556 3.4 7.556 7.556.001 4.155-3.4 7.556-7.556 7.556z" fill="#ffdd40"/><path d="m198.567 346.028c3.767-7.912 13.776-10.473 20.841-5.288 6.001 4.404 7.317 12.644 3.351 18.943-3.237 5.142-5.085 12.468-1.037 22.076 1.693 4.019.071 8.676-3.66 10.935-3.481 2.109-7.94 1.593-10.853-1.249-5.448-5.314-13.091-14.898-13.091-26.84.001-7.047 1.986-13.403 4.449-18.577z" fill="#ff4155"/><g><path d="m236.714 406.411c-2.209 0-4-1.791-4-4v-30.924c0-3.837-2.042-6.887-6.245-9.323-3.58-2.075-7.309-2.798-7.347-2.805-2.166-.41-3.598-2.497-3.194-4.664s2.483-3.604 4.648-3.203c.199.037 4.935.927 9.683 3.624 6.839 3.885 10.454 9.546 10.454 16.371v30.924c.001 2.209-1.79 4-3.999 4z" fill="#ffdd40"/></g><path d="m212.698 348.095c4.156 0 7.556-3.4 7.556-7.556 0-4.156-3.4-7.556-7.556-7.556-4.156 0-7.557 3.4-7.557 7.556.001 4.155 3.401 7.556 7.557 7.556z" fill="#ffdd40"/><g><path d="m275.034 449.076c.633 0 1.275-.15 1.873-.468 1.951-1.036 2.693-3.458 1.657-5.409-5.032-9.478-4.555-14.312-3.823-16.35.582-1.62 1.611-2.267 1.621-2.271 2.041-.846 3.01-3.185 2.164-5.227-.846-2.04-3.188-3.008-5.227-2.164-.432.179-4.268 1.893-6.087 6.956-2.095 5.832-.653 13.505 4.286 22.807.718 1.355 2.103 2.126 3.536 2.126z" fill="#ffdd40"/></g><ellipse cx="241.434" cy="450.319" fill="#ff4155" rx="10.025" ry="14.19"/><ellipse cx="270.555" cy="450.319" fill="#ff4155" rx="10.025" ry="14.19"/><ellipse cx="250.893" cy="231.665" fill="#ffdd40" rx="13.498" ry="24.235" transform="matrix(.866 -.5 .5 .866 -82.219 156.483)"/><path d="m375.092 52.85c-22.179 22.09-65.254 72.058-14.764 83.986 65.333 15.434 55.333 87.434 66 136.101 9.191 41.936 20.862 77.858 62.944 69.107 7.607-23.654 11.725-48.873 11.725-75.056 0-92.08-50.806-172.281-125.905-214.138z" fill="#3c58a0"/><path d="m136.897 52.85c22.18 22.09 42.523 74.971 7.868 86.659-52.104 17.573-48.437 84.761-59.104 133.427-9.191 41.936-20.862 77.858-62.944 69.107-7.607-23.654-11.725-48.873-11.725-75.056.001-92.079 50.806-172.28 125.905-214.137z" fill="#3c58a0"/><g fill="#ffe98d"><path d="m259.442 226.963c0 3.667-2.973 6.64-6.64 6.64s-6.64-2.973-6.64-6.64 2.973-6.64 6.64-6.64 6.64 2.973 6.64 6.64z"/><path d="m280.459 72.77c0 3.667-2.973 6.64-6.64 6.64s-6.64-2.973-6.64-6.64 2.973-6.64 6.64-6.64 6.64 2.972 6.64 6.64z"/><circle cx="254.544" cy="309.436" r="7.125"/></g><path d="m249.128 151.525c-4.256-3.967-5.646-8.58-5.916-12.379-.164-2.305-3.145-3.156-4.503-1.285-12.845 17.697-5.627 31.346-.078 37.99 1.801 2.156 5.177 1.92 6.627-.486 1.928-3.2 4.425-5.163 6.525-6.343 1.308-.735 2.759-1.103 4.21-1.103-8.009-8.009 0-13.672 0-13.672v-.001c-2.468-.013-4.939-.926-6.865-2.721z" fill="#ff4155"/></g></svg>