<?xml version="1.0" encoding="iso-8859-1"?>
<!-- Generator: Adobe Illustrator 19.0.0, SVG Export Plug-In . SVG Version: 6.00 Build 0)  -->
<svg version="1.1" id="Capa_1" xmlns="http://www.w3.org/2000/svg" xmlns:xlink="http://www.w3.org/1999/xlink" x="0px" y="0px"
	 viewBox="0 0 512.005 512.005" style="enable-background:new 0 0 512.005 512.005;" xml:space="preserve">
<path style="fill:#166CBF;" d="M481.882,389.34c-5.647-0.03-11.189-1.641-15.962-4.668l-89.449-56.169v18.071
	c0,16.64-13.478,30.118-30.118,30.118h-60.235c-16.64,0-30.118-13.478-30.118-30.118s13.478-30.118,30.118-30.118h30.118v-42.466
	c0.045-16.64,13.568-30.072,30.208-30.027c5.617,0.015,11.113,1.596,15.872,4.578l89.449,56.169V129.726l-89.449,56.169
	c-14.11,8.809-32.693,4.533-41.502-9.577c-2.982-4.759-4.563-10.255-4.578-15.872v-54.814h-256v90.353
	c0,16.64-13.478,30.118-30.118,30.118S0,212.624,0,195.984V75.514c0-16.64,13.478-30.118,30.118-30.118h316.235
	c16.64,0,30.118,13.478,30.118,30.118v30.118l89.449-56.169c14.11-8.824,32.693-4.533,41.502,9.577
	c3.087,4.939,4.683,10.662,4.578,16.474v283.708C512,375.862,498.522,389.34,481.882,389.34z"/>
<path style="fill:#1E90FF;" d="M187.031,415.693l-46.532-46.532l46.381-46.381c11.761-11.761,11.761-30.856,0-42.616
	c-11.761-11.761-30.856-11.761-42.616,0l-46.231,46.381l-45.176-45.176c-12.258-11.234-31.322-10.406-42.556,1.852
	c-10.466,11.43-10.556,28.928-0.211,40.463l45.176,45.176L8.885,415.693c-11.761,11.761-11.761,30.856,0,42.616
	c11.761,11.761,30.856,11.761,42.616,0l0,0l46.381-46.532l46.381,46.532c11.761,11.761,30.856,11.761,42.616,0
	c11.761-11.761,11.761-30.856,0-42.616l0,0H187.031z"/>
<g>
</g>
<g>
</g>
<g>
</g>
<g>
</g>
<g>
</g>
<g>
</g>
<g>
</g>
<g>
</g>
<g>
</g>
<g>
</g>
<g>
</g>
<g>
</g>
<g>
</g>
<g>
</g>
<g>
</g>
</svg>
