<?xml version="1.0" ?><svg style="enable-background:new 0 0 24 24;" version="1.1" viewBox="0 0 24 24" xml:space="preserve" xmlns="http://www.w3.org/2000/svg" xmlns:xlink="http://www.w3.org/1999/xlink"><style type="text/css">
	.st0{display:none;}
	.st1{display:inline;}
	.st2{opacity:0.2;fill:none;stroke:#000000;stroke-width:5.000000e-02;stroke-miterlimit:10;}
</style><g class="st0" id="grid_system"/><g id="_icons"><path d="M19.3,7.7C19.5,7.9,19.7,8,20,8s0.5-0.1,0.7-0.3c0.4-0.4,0.4-1,0-1.4l-2-2c-0.4-0.4-1-0.4-1.4,0s-0.4,1,0,1.4L17.6,6   l-0.7,0.7c-1.1-0.9-2.4-1.4-3.9-1.6V4c0-0.6-0.4-1-1-1s-1,0.4-1,1v1.1C7.1,5.6,4,8.9,4,13c0,4.4,3.6,8,8,8s8-3.6,8-8   c0-1.8-0.6-3.5-1.7-4.9L19,7.4L19.3,7.7z M12,19c-3.3,0-6-2.7-6-6s2.7-6,6-6s6,2.7,6,6S15.3,19,12,19z" fill="#00FFBA"/><path d="M12,9c-0.6,0-1,0.4-1,1v3c0,0.6,0.4,1,1,1s1-0.4,1-1v-3C13,9.4,12.6,9,12,9z" fill="#00FFBA"/></g></svg>