<svg height="460pt" viewBox="-5 0 459 460" width="460pt" xmlns="http://www.w3.org/2000/svg"><path d="m336.5 71.199219c0-5.597657-3.199219-11.199219-8-13.597657l-96-55.203124c-4.800781-3.199219-11.199219-3.199219-16 0l-96 55.203124c-4.800781 3.199219-8 8-8 13.597657v126.402343l112 64 112-64zm0 0" fill="#b4b4b5"/><path d="m224.5 261.601562 72-40.800781v-43.199219c0-7.203124-4.800781-12.800781-11.199219-15.203124l-36.800781-12.796876 11.199219-11.203124c3.199219-3.199219 4.800781-7.199219 4.800781-11.199219v-57.597657c0-8.800781-7.199219-16-16-16h-48c-8.800781 0-16 7.199219-16 16v57.597657c0 4 1.601562 8 4.800781 11.199219l11.199219 11.203124-36.800781 12c-6.398438 2.398438-11.199219 8-11.199219 15.199219v43.199219zm0 0" fill="#efccbf"/><path d="m184.5 109.601562c0-10.402343 8-18.402343 18.398438-18.402343 3.203124 0 6.402343.800781 9.601562 2.402343l12 8 12.800781-7.203124c8.800781-4.796876 20-2.398438 24.800781 6.402343 1.597657 3.199219 2.398438 6.398438 2.398438 9.597657v-40c0-8.796876-7.199219-16-16-16h-48c-8.800781 0-16 7.203124-16 16zm0 0" fill="#704d4d"/><path d="m285.300781 161.601562-36.800781-12-24 24 16.800781 16.796876c4.800781 4.800781 5.597657 11.203124 4 16.800781l-20.800781 54.402343 72-40.800781v-43.199219c0-7.203124-4.800781-13.601562-11.199219-16zm0 0" fill="#3a6289"/><path d="m204.5 207.199219c-2.398438-5.597657-.800781-12.800781 4-16.800781l16-16.796876-24-24-36.800781 12c-6.398438 2.398438-11.199219 8-11.199219 15.199219v43.199219l72 40.800781zm0 0" fill="#3a6289"/><path d="m224.5 173.601562-16.800781 16.796876c-4.800781 4.800781-5.597657 11.203124-4 16.800781l20.800781 54.402343 20-54.402343c2.398438-5.597657.800781-12.800781-4-16.800781zm0 0" fill="#edd9be"/><path d="m224.5 397.601562v-136l-112-64-104 59.199219c-4.800781 3.199219-8 8-8 13.597657v127.203124l104 59.199219c4.800781 3.199219 11.199219 3.199219 16 0zm0 0" fill="#d6d7d8"/><path d="m170.898438 300.800781c-2.398438-32-30.398438-56-63.199219-53.601562-28.800781 2.402343-52 24.800781-53.597657 53.601562l-5.601562 80.800781h128zm0 0" fill="#704d4d"/><path d="m172.5 373.601562-32.800781-9.601562c-7.199219-1.601562-12-8-12-15.199219v-12l6.402343-12.800781c.796876-2.398438 1.597657-4.800781 1.597657-7.199219v-15.199219c0-13.601562-10.398438-24-24-24-13.597657 0-24 10.398438-24 24v15.199219c0 2.398438.800781 4.800781 1.601562 7.199219l6.398438 12.800781v12c0 7.199219-4.800781 13.597657-12 15.199219l-31.199219 9.601562c-7.199219 1.597657-12 8-12 15.199219v32l64 36.800781c4.800781 3.199219 11.199219 3.199219 16 0l64-36.800781v-32c0-7.199219-4.800781-13.601562-12-15.199219zm0 0" fill="#efccbf"/><path d="m90.898438 360c-.796876.800781-1.597657 1.601562-2.398438 2.398438-.800781.800781-2.398438 1.601562-4 1.601562l-32 9.601562c-7.199219 1.597657-12 8-12 15.199219v32l64 36.800781c2.398438 1.597657 4.800781 2.398438 8 2.398438v-78.398438zm0 0" fill="#d3756e"/><path d="m88.5 448 16 8.800781c4.800781 3.199219 11.199219 3.199219 16 0l64-36.800781v-32c0-7.199219-4.800781-13.601562-12-15.199219l-32.800781-9.601562c-2.398438-.800781-4.800781-2.398438-6.398438-4l-20.800781 22.402343-24 24zm0 0" fill="#e57e73"/><path d="m448.5 271.199219c0-5.597657-3.199219-11.199219-8-13.597657l-104-60-112 64v136l104 59.199219c4.800781 3.199219 11.199219 3.199219 16 0l104-59.199219zm0 0" fill="#e9e9e9"/><path d="m408.5 377.601562c0-7.203124-4.800781-12.800781-11.199219-15.203124l-36.800781-12.796876 13.601562-20c1.597657-2.402343 2.398438-5.601562 2.398438-8.800781v-27.199219l-40-8-40 8v27.199219c0 3.199219.800781 6.398438 2.398438 8.800781l13.601562 20-36.800781 12c-6.398438 2.398438-11.199219 8-11.199219 15.199219v43.199219l64 36.800781c4.800781 3.199219 11.199219 3.199219 16 0l64-36.800781zm0 0" fill="#efccbf"/><path d="m360.5 349.601562c-9.601562 13.597657-28.800781 16-41.601562 6.398438-2.398438-1.601562-4-4-6.398438-6.398438l-36.800781 12c-6.398438 2.398438-11.199219 8-11.199219 15.199219v43.199219l64 36.800781c4.800781 3.199219 11.199219 3.199219 16 0l64-36.800781v-43.199219c0-7.199219-4.800781-12.800781-11.199219-15.199219zm0 0" fill="#5da364"/><path d="m312.5 253.601562c-8.800781 0-16 7.199219-16 16v24l40-8 40 8v-40zm0 0" fill="#704d4d"/><g fill="#538457"><path d="m328.5 381.601562h16v16h-16zm0 0"/><path d="m328.5 413.601562h16v16h-16zm0 0"/><path d="m360.5 381.601562h24v16h-24zm0 0"/></g><path d="m264.5 181.601562h16v16h-16zm0 0" fill="#4282b7"/><path d="m136.5 389.601562h24v16h-24zm0 0" fill="#f78b7c"/></svg>