<?xml version="1.0" ?><svg id="Icons_FamilyWithTwoChildren" overflow="hidden" version="1.1" viewBox="0 0 96 96" xmlns="http://www.w3.org/2000/svg" xmlns:xlink="http://www.w3.org/1999/xlink"><g><circle cx="59" cy="23" r="5"/><circle cx="81" cy="47" r="4"/><circle cx="37" cy="23" r="5"/><circle cx="15" cy="47" r="4"/><path d=" M 91.8 64.2 L 88.3 55.9 C 87.1 54.2 85.2 52.9 83.1 52.3 C 82.5 52.1 81.7 52 81 52 C 79.6 52 78.3 52.3 77.1 52.9 L 71 48.6 L 67.4 33.6 C 67.3 33.2 67 32.7 66.7 32.5 C 65.5 31.6 64.1 30.9 62.6 30.5 C 61.4 30.2 60.2 30 59 30 C 57.8 30 56.6 30.2 55.5 30.5 C 54 30.9 52.6 31.6 51.4 32.5 C 51 32.8 50.8 33.2 50.7 33.6 L 48 44.4 L 45.4 33.6 C 45.3 33.2 45 32.7 44.7 32.5 C 43.5 31.6 42.1 30.9 40.6 30.5 C 39.4 30.2 38.2 30 37 30 C 35.8 30 34.6 30.2 33.5 30.5 C 32 30.9 30.6 31.6 29.4 32.5 C 29 32.8 28.8 33.2 28.7 33.6 L 25.1 48.6 L 19 52.9 C 17.7 52.3 16.4 52 15 52 C 14.3 52 13.5 52.1 12.9 52.3 C 10.8 52.8 8.9 54.1 7.7 55.9 L 4.2 64.2 C 3.8 65.1 4.1 66.1 4.8 66.7 C 5.2 66.9 5.6 67 6 67 C 6.8 67 7.5 66.5 7.8 65.8 L 10 60.6 L 10 66 L 10 78 L 14 78 L 14 66 L 16 66 L 16 78 L 20 78 L 20 57 L 20.1 57 L 28 51.5 C 28.4 51.2 28.7 50.8 28.8 50.3 L 32 37 L 32 78 L 36 78 L 36 55 L 38 55 L 38 78 L 42 78 L 42 37 L 46.1 53.5 C 46.3 54.4 47.1 55 48 55 C 48.9 55 49.7 54.4 49.9 53.5 L 54 37 L 54 45.4 L 50.5 60 L 54 60 L 54 78 L 58 78 L 58 60 L 60 60 L 60 78 L 64 78 L 64 60 L 67.5 60 L 64 45.4 L 64 37 L 67.3 50.3 C 67.4 50.8 67.7 51.2 68.1 51.5 L 76.1 57.1 L 76.1 63.3 L 74 69 L 76 69 L 76 78 L 80 78 L 80 69 L 82 69 L 82 78 L 86 78 L 86 69 L 88 69 L 86.1 63.7 L 86.1 60.6 L 88.3 65.8 C 88.6 66.6 89.4 67 90.1 67 C 90.5 67 90.9 66.9 91.3 66.6 C 91.9 66.1 92.2 65 91.8 64.2 Z"/></g></svg>