<svg id="icn_dtrs" xmlns="http://www.w3.org/2000/svg" width="50" height="50" viewBox="0 0 50 50">
  <rect id="Rectangle_1" data-name="Rectangle 1" width="50" height="50" fill="none"/>
  <g id="Group_5" data-name="Group 5" transform="translate(0.345 -1.25)">
    <path id="XMLID_179_" d="M19.872,27.886A10.634,10.634,0,0,1,9.25,17.264V6.48a5.236,5.236,0,0,1,5.23-5.23H25.264a5.236,5.236,0,0,1,5.23,5.23V17.264A10.634,10.634,0,0,1,19.872,27.886ZM14.48,4.521A1.961,1.961,0,0,0,12.521,6.48V17.264a7.351,7.351,0,1,0,14.7,0V6.48a1.961,1.961,0,0,0-1.959-1.959Z" transform="translate(4.784)" fill="#9e4784"/>
    <path id="XMLID_178_" d="M12.075,17.25H37.236a8.835,8.835,0,0,1,8.825,8.825V36.858a1.636,1.636,0,0,1-1.636,1.636H4.886A1.636,1.636,0,0,1,3.25,36.858V26.075A8.835,8.835,0,0,1,12.075,17.25ZM42.79,35.223V26.075a5.56,5.56,0,0,0-5.554-5.554H12.075a5.56,5.56,0,0,0-5.554,5.554v9.148Z" transform="translate(0 12.756)" fill="#9e4784"/>
    <path id="XMLID_177_" d="M27.059,17.014a1.635,1.635,0,0,1-1.415-.813,7.491,7.491,0,0,0-2.632-2.667,7.236,7.236,0,0,0-7.387,0A7.491,7.491,0,0,0,12.993,16.2a1.636,1.636,0,0,1-2.827-1.645,10.77,10.77,0,0,1,3.786-3.832,10.507,10.507,0,0,1,10.733,0,10.77,10.77,0,0,1,3.786,3.832,1.636,1.636,0,0,1-1.412,2.458Z" transform="translate(5.337 6.378)" fill="#9e4784"/>
    <path id="XMLID_176_" d="M17.858,1.521H-.114A1.636,1.636,0,0,1-1.75-.114,1.636,1.636,0,0,1-.114-1.75H17.858A1.636,1.636,0,0,1,19.494-.114,1.636,1.636,0,0,1,17.858,1.521Z" transform="translate(15.784 10.189)" fill="#9e4784"/>
    <path id="XMLID_175_" d="M-.114,6.913A1.636,1.636,0,0,1-1.75,5.277V-.114A1.636,1.636,0,0,1-.114-1.75,1.636,1.636,0,0,1,1.521-.114V5.277A1.636,1.636,0,0,1-.114,6.913Z" transform="translate(17.581 31.756)" fill="#9e4784"/>
    <circle id="XMLID_174_" cx="3.595" cy="3.595" r="3.595" transform="translate(30.047 37.034)" fill="#9e4784"/>
    <path id="XMLID_173_" d="M-.114,10.507A1.636,1.636,0,0,1-1.75,8.872V-.114A1.636,1.636,0,0,1-.114-1.75,1.636,1.636,0,0,1,1.521-.114V8.872A1.636,1.636,0,0,1-.114,10.507Z" transform="translate(33.756 31.756)" fill="#9e4784"/>
    <path id="XMLID_171_" d="M19.669,30.71h-1.8a1.636,1.636,0,1,1,0-3.271h.162v-.162a3.756,3.756,0,1,0-7.513,0v.162h.162a1.636,1.636,0,1,1,0,3.271h-1.8A1.636,1.636,0,0,1,7.25,29.075v-1.8a7.027,7.027,0,1,1,14.055,0v1.8A1.636,1.636,0,0,1,19.669,30.71Z" transform="translate(3.189 15.148)" fill="#9e4784"/>
  </g>
</svg>
