<svg id="icn_clnc" xmlns="http://www.w3.org/2000/svg" width="50" height="50" viewBox="0 0 50 50">
  <rect id="Rectangle_1" data-name="Rectangle 1" width="50" height="50" fill="none"/>
  <g id="Group_4" data-name="Group 4" transform="translate(-4.003 -3.99)">
    <path id="Path_22" data-name="Path 22" d="M10.247,53.99H47.711a6.243,6.243,0,0,0,6.244-6.244V18.58a6.243,6.243,0,0,0-6.244-6.244H45.63v-2.1A6.245,6.245,0,0,0,39.386,3.99H18.572a6.246,6.246,0,0,0-6.244,6.244v2.1H10.247A6.245,6.245,0,0,0,4,18.58V47.746a6.246,6.246,0,0,0,6.244,6.244ZM45.63,16.5V49.827h2.081a2.079,2.079,0,0,0,2.081-2.081V18.58A2.079,2.079,0,0,0,47.711,16.5H45.63ZM37.292,49.827h4.175V10.234a2.081,2.081,0,0,0-2.081-2.081H18.572a2.082,2.082,0,0,0-2.081,2.081V49.827h4.15V39.419a6.246,6.246,0,0,1,6.244-6.244h4.163a6.243,6.243,0,0,1,6.244,6.244ZM12.328,16.5H10.247A2.082,2.082,0,0,0,8.166,18.58V47.746a2.082,2.082,0,0,0,2.081,2.081h2.081Zm20.8,33.328H24.8V39.419a2.082,2.082,0,0,1,2.081-2.081h4.163a2.082,2.082,0,0,1,2.081,2.081Z" transform="translate(0)" fill="#9e4784" fill-rule="evenodd"/>
    <path id="Path_23" data-name="Path 23" d="M17.17,12.169h-2.1a2.081,2.081,0,1,0,0,4.163h2.092l0,2.092a2.081,2.081,0,0,0,4.163.006l0-2.1h2.1a2.081,2.081,0,0,0,0-4.163h-2.09l0-2.092a2.081,2.081,0,0,0-4.163-.006Z" transform="translate(9.719 4.33)" fill="#9e4784" fill-rule="evenodd"/>
  </g>
</svg>
