<svg id="icn_home" xmlns="http://www.w3.org/2000/svg" width="50" height="50" viewBox="0 0 50 50">
  <rect id="Rectangle_1" data-name="Rectangle 1" width="50" height="50" transform="translate(0 0)" fill="none"/>
  <g id="g1265" transform="translate(-2 -292.65)">
    <path id="rect1251" d="M27.02,292.65a2.5,2.5,0,0,0-1.509.527l-22.544,17.5A2.5,2.5,0,0,0,2,312.65v21.841a8.2,8.2,0,0,0,8.159,8.159H43.841A8.2,8.2,0,0,0,52,334.491V312.65a2.5,2.5,0,0,0-.962-1.973l-22.456-17.5a2.5,2.5,0,0,0-1.562-.527Zm.02,5.669L47,313.871v20.62a3.1,3.1,0,0,1-3.159,3.159H37v-12.5a10,10,0,0,0-20,0v12.5H10.159A3.1,3.1,0,0,1,7,334.491v-20.62ZM27,320.15a4.935,4.935,0,0,1,5,5v12.5H22v-12.5A4.935,4.935,0,0,1,27,320.15Z" fill="#9e4784"/>
  </g>
</svg>
