<svg id="icn_rvws" xmlns="http://www.w3.org/2000/svg" width="53.5" height="50.477" viewBox="0 0 53.5 50.477">
  <rect id="Rectangle_1" data-name="Rectangle 1" width="50" height="50" transform="translate(2)" fill="none"/>
  <g id="Group_3" data-name="Group 3" transform="translate(-1.25 -3.25)">
    <path id="Path_20" data-name="Path 20" d="M6.831,4.25H49.169A5.588,5.588,0,0,1,54.75,9.831V51.977a1.75,1.75,0,0,1-2.861,1.352l-13.5-11.1H6.831A5.588,5.588,0,0,1,1.25,36.651V9.831A5.588,5.588,0,0,1,6.831,4.25ZM51.25,48.273V9.831A2.084,2.084,0,0,0,49.169,7.75H6.831A2.084,2.084,0,0,0,4.75,9.831v26.82a2.084,2.084,0,0,0,2.081,2.081H39.015a1.75,1.75,0,0,1,1.111.4Z" transform="translate(0 0)" fill="#9e4784"/>
    <path id="Path_21" data-name="Path 21" d="M16.579,8.15a1.75,1.75,0,0,1,1.585,1.007l2.472,5.274,5.769.824a1.75,1.75,0,0,1,.964,2.995L23.253,22.2l.987,5.594a1.75,1.75,0,0,1-2.526,1.859L16.579,27l-5.136,2.651A1.75,1.75,0,0,1,8.916,27.8L9.9,22.2,5.788,18.251a1.75,1.75,0,0,1,.964-2.995l5.769-.824,2.472-5.274A1.75,1.75,0,0,1,16.579,8.15Zm5.776,10.063-3.15-.45a1.75,1.75,0,0,1-1.337-.99l-1.289-2.75-1.289,2.75a1.75,1.75,0,0,1-1.337.99l-3.15.45L13,20.323a1.75,1.75,0,0,1,.511,1.567l-.535,3.033,2.8-1.444a1.75,1.75,0,0,1,1.605,0l2.8,1.444-.535-3.033a1.75,1.75,0,0,1,.511-1.567Z" transform="translate(3.663 3.571)" fill="#9e4784"/>
    <path id="Line_1" data-name="Line 1" d="M9.579,1.75H0A1.75,1.75,0,0,1-1.75,0,1.75,1.75,0,0,1,0-1.75H9.579A1.75,1.75,0,0,1,11.329,0,1.75,1.75,0,0,1,9.579,1.75Z" transform="translate(35.567 19.41)" fill="#9e4784"/>
    <path id="Line_2" data-name="Line 2" d="M5.747,1.75H0A1.75,1.75,0,0,1-1.75,0,1.75,1.75,0,0,1,0-1.75H5.747A1.75,1.75,0,0,1,7.5,0,1.75,1.75,0,0,1,5.747,1.75Z" transform="translate(39.398 27.073)" fill="#9e4784"/>
  </g>
</svg>
