<svg id="icn_appt" xmlns="http://www.w3.org/2000/svg" width="50" height="50" viewBox="0 0 50 50">
  <rect id="Rectangle_1" data-name="Rectangle 1" width="50" height="50" fill="none"/>
  <path id="Path_7" data-name="Path 7" d="M14.526,3V8.263H9.263V18.789a10.526,10.526,0,0,0,21.053,0V8.263H25.053V3h7.895a2.633,2.633,0,0,1,2.632,2.632V18.789A15.8,15.8,0,0,1,22.421,34.361v4.166A9.212,9.212,0,0,0,40.25,41.782a7.888,7.888,0,1,1,5.392.389,14.476,14.476,0,0,1-28.484-3.645V34.361A15.793,15.793,0,0,1,4,18.789V5.632A2.633,2.633,0,0,1,6.632,3Z" transform="translate(-3 -3)" fill="#9e4784"/>
</svg>
