<svg id="icn_ptnt" xmlns="http://www.w3.org/2000/svg" width="50" height="50" viewBox="0 0 50 50">
  <rect id="Rectangle_1" data-name="Rectangle 1" width="50" height="50" fill="none"/>
  <path id="Path_19" data-name="Path 19" d="M38.367,2a5.624,5.624,0,0,1,5.624,5.624V46.376A5.624,5.624,0,0,1,38.367,52H9.624A5.624,5.624,0,0,1,4,46.376V7.624A5.624,5.624,0,0,1,9.239,2.013L9.624,2Zm1.875,34.992H7.749v9.384a1.875,1.875,0,0,0,1.875,1.875H38.367a1.875,1.875,0,0,0,1.875-1.875ZM13.376,40.741H34.618a1.875,1.875,0,0,1,.254,3.732l-.254.017H13.376a1.875,1.875,0,0,1-.254-3.732l.254-.017h0ZM38.367,5.749H9.624l-.254.017a1.875,1.875,0,0,0-1.62,1.857V33.243H14V27.608A3.125,3.125,0,0,1,16.8,24.5l.319-.016H30.869a3.125,3.125,0,0,1,3.108,2.8l.016.319v5.635h6.249V7.624A1.875,1.875,0,0,0,38.367,5.749ZM24,9.487a6.249,6.249,0,1,1-6.249,6.249A6.249,6.249,0,0,1,24,9.487Z" transform="translate(1 -2)" fill="#9e4784"/>
</svg>
