<svg id="icn_uuserR" xmlns="http://www.w3.org/2000/svg" width="150" height="150" viewBox="0 0 150 150">
  <path id="Path_11" data-name="Path 11" d="M118.75,65.625A38.186,38.186,0,0,0,131.25,37.5,37.61,37.61,0,0,0,93.75,0C75,0,60,12.5,56.875,31.25H56.25a37.61,37.61,0,0,0-37.5,37.5,38.186,38.186,0,0,0,12.5,28.125C20,99.375,9.375,106.25,0,118.75v25A5.9,5.9,0,0,0,6.25,150h100a5.9,5.9,0,0,0,6.25-6.25v-25h31.25A5.9,5.9,0,0,0,150,112.5v-25C141.25,75,130,68.125,118.75,65.625ZM93.75,12.5a25.073,25.073,0,0,1,25,25,24.679,24.679,0,0,1-25,25h0c0-13.125-11.875-24.375-24.375-28.75A24.864,24.864,0,0,1,93.75,12.5ZM31.25,68.75a25,25,0,1,1,25,25A25.074,25.074,0,0,1,31.25,68.75ZM100,137.5H12.5V125S25,106.25,56.25,106.25,100,125,100,125Zm37.5-31.25H100.625c-6.25-5-12.5-8.125-19.375-9.375A36.19,36.19,0,0,0,93.125,75h.625C125,75,137.5,93.75,137.5,93.75Z" fill="#fff"/>
</svg>
