<svg id="Component_1_1" data-name="Component 1 – 1" xmlns="http://www.w3.org/2000/svg" width="445.205" height="91.337" viewBox="0 0 445.205 91.337">
  <path id="Path_1" data-name="Path 1" d="M30.446,0a15.509,15.509,0,0,1,2,7.118,22.884,22.884,0,0,1-2,8.105H15.223V45.669a30.446,30.446,0,1,0,60.892,0V15.223H60.892a17.961,17.961,0,0,1-2-7.476,19.977,19.977,0,0,1,2-7.747H83.726a7.614,7.614,0,0,1,7.611,7.611V45.669A45.684,45.684,0,0,1,53.28,90.706a52.666,52.666,0,0,1-7.611.639,52.666,52.666,0,0,1-7.611-.639A45.678,45.678,0,0,1,0,45.669V7.611A7.614,7.614,0,0,1,7.611,0Z" transform="translate(91.345) rotate(90)" fill="#fff"/>
  <circle id="Ellipse_1" data-name="Ellipse 1" cx="12.5" cy="12.5" r="12.5" transform="translate(53.505 33.229) rotate(90)" fill="#fff"/>
  <path id="Path_3" data-name="Path 3" d="M44.07-51.948a4.175,4.175,0,0,1,2.418,3.978,5.281,5.281,0,0,1-1.17,3.2,3.852,3.852,0,0,1-3.2,1.638,5.624,5.624,0,0,1-2.652-.7A19.213,19.213,0,0,0,31.2-45.63a18.962,18.962,0,0,0-9.516,2.3,15.6,15.6,0,0,0-6.24,6.474A20.3,20.3,0,0,0,13.26-27.3q0,9.2,4.953,13.962T31.2-8.58a17.946,17.946,0,0,0,8.268-1.794,6.267,6.267,0,0,1,2.5-.624A4.282,4.282,0,0,1,45.4-9.282a5.061,5.061,0,0,1,1.17,3.2,4.23,4.23,0,0,1-.624,2.262,4.059,4.059,0,0,1-1.794,1.56A28.564,28.564,0,0,1,31.2.78,30.642,30.642,0,0,1,17.16-2.457,24.911,24.911,0,0,1,6.942-12.012,29.006,29.006,0,0,1,3.12-27.3,28.15,28.15,0,0,1,6.747-41.574,25.748,25.748,0,0,1,16.77-51.441,29.234,29.234,0,0,1,31.2-54.99,27.777,27.777,0,0,1,44.07-51.948ZM64.116-4.758a4.606,4.606,0,0,1-1.365,3.393A4.606,4.606,0,0,1,59.358,0a4.386,4.386,0,0,1-3.276-1.365,4.678,4.678,0,0,1-1.326-3.393v-48.2a4.606,4.606,0,0,1,1.365-3.393,4.606,4.606,0,0,1,3.393-1.365,4.386,4.386,0,0,1,3.276,1.365,4.678,4.678,0,0,1,1.326,3.393Zm19.734,0a4.678,4.678,0,0,1-1.326,3.393A4.478,4.478,0,0,1,79.17,0a4.478,4.478,0,0,1-3.354-1.365A4.678,4.678,0,0,1,74.49-4.758V-36.972a4.678,4.678,0,0,1,1.326-3.393A4.478,4.478,0,0,1,79.17-41.73a4.478,4.478,0,0,1,3.354,1.365,4.677,4.677,0,0,1,1.326,3.393ZM79.092-46.8a6.2,6.2,0,0,1-3.744-.858A3.665,3.665,0,0,1,74.256-50.7v-1.482a3.536,3.536,0,0,1,1.17-3.042,6.415,6.415,0,0,1,3.744-.858,6.366,6.366,0,0,1,3.822.858,3.665,3.665,0,0,1,1.092,3.042V-50.7a3.583,3.583,0,0,1-1.131,3.081A6.811,6.811,0,0,1,79.092-46.8Zm36.66,4.29q7.956,0,11,4.719t3.042,13.065V-4.758a4.678,4.678,0,0,1-1.326,3.393A4.478,4.478,0,0,1,125.112,0a4.478,4.478,0,0,1-3.354-1.365,4.678,4.678,0,0,1-1.326-3.393V-24.726a11.236,11.236,0,0,0-1.794-6.747q-1.794-2.457-6.162-2.457a9.51,9.51,0,0,0-7.1,2.613,9.007,9.007,0,0,0-2.574,6.591V-4.758a4.678,4.678,0,0,1-1.326,3.393A4.478,4.478,0,0,1,98.124,0,4.478,4.478,0,0,1,94.77-1.365a4.678,4.678,0,0,1-1.326-3.393V-36.972a4.677,4.677,0,0,1,1.326-3.393,4.478,4.478,0,0,1,3.354-1.365,4.478,4.478,0,0,1,3.354,1.365,4.677,4.677,0,0,1,1.326,3.393v1.326a18.839,18.839,0,0,1,5.5-4.836A14.25,14.25,0,0,1,115.752-42.51ZM148.746-4.758a4.678,4.678,0,0,1-1.326,3.393A4.478,4.478,0,0,1,144.066,0a4.478,4.478,0,0,1-3.354-1.365,4.678,4.678,0,0,1-1.326-3.393V-36.972a4.677,4.677,0,0,1,1.326-3.393,4.478,4.478,0,0,1,3.354-1.365,4.478,4.478,0,0,1,3.354,1.365,4.677,4.677,0,0,1,1.326,3.393ZM143.988-46.8a6.2,6.2,0,0,1-3.744-.858,3.665,3.665,0,0,1-1.092-3.042v-1.482a3.536,3.536,0,0,1,1.17-3.042,6.415,6.415,0,0,1,3.744-.858,6.366,6.366,0,0,1,3.822.858,3.665,3.665,0,0,1,1.092,3.042V-50.7a3.583,3.583,0,0,1-1.131,3.081A6.811,6.811,0,0,1,143.988-46.8Zm32.526,4.29q6.63,0,10.686,2.067t4.056,5.5a4.711,4.711,0,0,1-1.014,3,3.216,3.216,0,0,1-2.652,1.287,4.983,4.983,0,0,1-2.028-.351,7.281,7.281,0,0,1-1.521-.936,10.851,10.851,0,0,0-1.443-.975,9.785,9.785,0,0,0-2.3-.7,12.833,12.833,0,0,0-2.457-.312q-5.85,0-9.165,3.627a13.5,13.5,0,0,0-3.315,9.477,13.364,13.364,0,0,0,3.354,9.321,11.056,11.056,0,0,0,8.58,3.7,13.273,13.273,0,0,0,5.694-.936,10.548,10.548,0,0,0,1.287-.819,8.854,8.854,0,0,1,1.521-.9,4.217,4.217,0,0,1,1.716-.312,3.95,3.95,0,0,1,3.081,1.248,4.58,4.58,0,0,1,1.131,3.2,4.516,4.516,0,0,1-2.184,3.51,17.01,17.01,0,0,1-5.772,2.613,29.042,29.042,0,0,1-7.644.975,19.754,19.754,0,0,1-10.569-2.808A18.884,18.884,0,0,1,158.5-9.789,24.175,24.175,0,0,1,156-20.826a23.556,23.556,0,0,1,2.613-11.232,19.225,19.225,0,0,1,7.293-7.683A20.434,20.434,0,0,1,176.514-42.51Zm55.77,0a4.546,4.546,0,0,1,3.354,1.326,4.644,4.644,0,0,1,1.326,3.432V-4.758a4.678,4.678,0,0,1-1.326,3.393A4.478,4.478,0,0,1,232.284,0a4.417,4.417,0,0,1-3.315-1.326A4.906,4.906,0,0,1,227.6-4.68a16.006,16.006,0,0,1-5.265,3.861,15.871,15.871,0,0,1-6.981,1.6,17.833,17.833,0,0,1-9.75-2.769,19.414,19.414,0,0,1-6.9-7.683,23.975,23.975,0,0,1-2.535-11.154,24.525,24.525,0,0,1,2.5-11.193,19.178,19.178,0,0,1,6.825-7.722,17.372,17.372,0,0,1,9.555-2.769,18.067,18.067,0,0,1,7.02,1.365,18.435,18.435,0,0,1,5.538,3.471v-.078a4.677,4.677,0,0,1,1.326-3.393A4.478,4.478,0,0,1,232.284-42.51ZM216.528-7.8a10.415,10.415,0,0,0,8.268-3.7,13.757,13.757,0,0,0,3.2-9.321,13.907,13.907,0,0,0-3.2-9.36,10.369,10.369,0,0,0-8.268-3.744,10.287,10.287,0,0,0-8.19,3.744,13.907,13.907,0,0,0-3.2,9.36A13.863,13.863,0,0,0,208.3-11.5,10.3,10.3,0,0,0,216.528-7.8Zm40.716,3.042a4.606,4.606,0,0,1-1.365,3.393A4.606,4.606,0,0,1,252.486,0a4.386,4.386,0,0,1-3.276-1.365,4.678,4.678,0,0,1-1.326-3.393v-48.2a4.606,4.606,0,0,1,1.365-3.393,4.606,4.606,0,0,1,3.393-1.365,4.386,4.386,0,0,1,3.276,1.365,4.678,4.678,0,0,1,1.326,3.393Zm21.06,0a4.606,4.606,0,0,1-1.365,3.393A4.606,4.606,0,0,1,273.546,0a4.386,4.386,0,0,1-3.276-1.365,4.677,4.677,0,0,1-1.326-3.393v-48.2a4.606,4.606,0,0,1,1.365-3.393A4.606,4.606,0,0,1,273.7-57.72a4.386,4.386,0,0,1,3.276,1.365,4.678,4.678,0,0,1,1.326,3.393ZM319.02-41.73a4.478,4.478,0,0,1,3.354,1.365,4.677,4.677,0,0,1,1.326,3.393v33.15q0,10.14-5.46,14.781T303.654,15.6a35.381,35.381,0,0,1-5.421-.429,20.334,20.334,0,0,1-4.485-1.131q-3.822-1.638-3.822-4.524a4.007,4.007,0,0,1,.234-1.248,4.835,4.835,0,0,1,1.6-2.613,3.873,3.873,0,0,1,2.457-.9,4.656,4.656,0,0,1,1.482.234q.546.234,1.911.78a19.665,19.665,0,0,0,2.886.9,14.006,14.006,0,0,0,3.159.351q5.538,0,8.151-2.379t2.613-8.151v-.78Q310.362.78,301.782.78a13.46,13.46,0,0,1-7.176-1.911,12.905,12.905,0,0,1-4.836-5.3,16.963,16.963,0,0,1-1.716-7.761V-36.972a4.677,4.677,0,0,1,1.326-3.393,4.478,4.478,0,0,1,3.354-1.365,4.478,4.478,0,0,1,3.354,1.365,4.677,4.677,0,0,1,1.326,3.393V-17q0,4.914,2.145,7.059T305.838-7.8a8.172,8.172,0,0,0,6.279-2.379Q314.34-12.558,314.34-17V-36.972a4.678,4.678,0,0,1,1.326-3.393A4.478,4.478,0,0,1,319.02-41.73Z" transform="translate(121.505 59.229)" fill="#fff"/>
  <path id="Path_4" data-name="Path 4" d="M8.528-16.2,2.21-.494a.851.851,0,0,1-.286.39.7.7,0,0,1-.416.13.712.712,0,0,1-.546-.2A.788.788,0,0,1,.754-.65.671.671,0,0,1,.78-.962l6.864-16.8a.869.869,0,0,1,.325-.4.867.867,0,0,1,.455-.117.749.749,0,0,1,.455.143.921.921,0,0,1,.3.377L16.016-1.04a.982.982,0,0,1,.052.312.687.687,0,0,1-.234.559.827.827,0,0,1-.546.2.749.749,0,0,1-.455-.143.921.921,0,0,1-.3-.377L8.06-16.3ZM3.718-5.252l.65-1.534h8.06l.312,1.534ZM20.9-.806a.853.853,0,0,1-.273.572A.792.792,0,0,1,20.072,0a.767.767,0,0,1-.585-.234.8.8,0,0,1-.221-.572V-17.394a.778.778,0,0,1,.234-.572.81.81,0,0,1,.6-.234.792.792,0,0,1,.559.234.758.758,0,0,1,.247.572ZM39.806-18.2a4.95,4.95,0,0,1,2.574.663A4.794,4.794,0,0,1,44.148-15.7a5.421,5.421,0,0,1,.65,2.678,5.645,5.645,0,0,1-.65,2.717A5.012,5.012,0,0,1,42.38-8.4a4.738,4.738,0,0,1-2.574.7H34.294l.13-.26V-.78a.748.748,0,0,1-.234.546A.748.748,0,0,1,33.644,0a.726.726,0,0,1-.572-.234.8.8,0,0,1-.208-.546V-17.42a.748.748,0,0,1,.234-.546.748.748,0,0,1,.546-.234Zm0,9a3.093,3.093,0,0,0,1.768-.507,3.469,3.469,0,0,0,1.183-1.378,4.324,4.324,0,0,0,.429-1.937,4,4,0,0,0-.429-1.885A3.264,3.264,0,0,0,41.574-16.2a3.284,3.284,0,0,0-1.768-.468H34.294l.13-.234v7.852L34.268-9.2Zm20.28,2.548a7.289,7.289,0,0,1-.858,3.549,6.42,6.42,0,0,1-2.34,2.47,6.4,6.4,0,0,1-3.38.9,6.368,6.368,0,0,1-3.341-.9A6.485,6.485,0,0,1,47.8-3.107a7.2,7.2,0,0,1-.871-3.549,7.182,7.182,0,0,1,.871-3.562,6.61,6.61,0,0,1,2.366-2.47,6.3,6.3,0,0,1,3.341-.91,6.328,6.328,0,0,1,3.38.91,6.543,6.543,0,0,1,2.34,2.47A7.269,7.269,0,0,1,60.086-6.656Zm-1.56,0a5.966,5.966,0,0,0-.65-2.821,5.028,5.028,0,0,0-1.781-1.95,4.738,4.738,0,0,0-2.587-.715,4.71,4.71,0,0,0-2.548.715,5.091,5.091,0,0,0-1.807,1.95,5.87,5.87,0,0,0-.663,2.821,5.8,5.8,0,0,0,.663,2.808A5.117,5.117,0,0,0,50.96-1.911a4.71,4.71,0,0,0,2.548.715,4.738,4.738,0,0,0,2.587-.715,5.052,5.052,0,0,0,1.781-1.937A5.889,5.889,0,0,0,58.526-6.656ZM79.2-13.572a.812.812,0,0,1,.533.208.708.708,0,0,1,.247.572.764.764,0,0,1-.026.182.806.806,0,0,1-.052.156l-4,11.96a.855.855,0,0,1-.325.377A.681.681,0,0,1,75.114,0a.8.8,0,0,1-.7-.494L70.746-9.126l.468.1L67.964-.494a.766.766,0,0,1-.7.494.729.729,0,0,1-.468-.117.694.694,0,0,1-.312-.377l-4.108-11.96a.863.863,0,0,1-.078-.338.758.758,0,0,1,.221-.559.791.791,0,0,1,.585-.221.757.757,0,0,1,.429.13.685.685,0,0,1,.273.39L67.5-1.976,67-2l3.354-8.45a.736.736,0,0,1,.728-.494.74.74,0,0,1,.442.13.868.868,0,0,1,.286.364l3.562,8.476L74.8-1.95l3.666-11.1A.685.685,0,0,1,79.2-13.572ZM88.972.26A7.121,7.121,0,0,1,85.436-.6,6.1,6.1,0,0,1,83.044-2.99a7.23,7.23,0,0,1-.858-3.588,7.625,7.625,0,0,1,.871-3.77,6.379,6.379,0,0,1,2.262-2.405A5.592,5.592,0,0,1,88.27-13.6a6.3,6.3,0,0,1,2.223.4A5.7,5.7,0,0,1,92.417-12a5.894,5.894,0,0,1,1.352,1.937,7.108,7.108,0,0,1,.559,2.652.8.8,0,0,1-.26.533.77.77,0,0,1-.546.221H83.1l-.312-1.4H93.028l-.338.312v-.52a3.8,3.8,0,0,0-.78-2.08,4.4,4.4,0,0,0-1.638-1.3,4.743,4.743,0,0,0-2-.442,4.475,4.475,0,0,0-1.6.312,4.2,4.2,0,0,0-1.482.975,5.016,5.016,0,0,0-1.079,1.69,6.457,6.457,0,0,0-.416,2.431A6.133,6.133,0,0,0,84.318-3.9a4.791,4.791,0,0,0,1.807,1.976,5.277,5.277,0,0,0,2.821.728,4.848,4.848,0,0,0,1.638-.26,4.485,4.485,0,0,0,1.274-.689,5.26,5.26,0,0,0,.91-.9.9.9,0,0,1,.572-.234.605.605,0,0,1,.455.208.667.667,0,0,1,.195.468.714.714,0,0,1-.26.546A7.006,7.006,0,0,1,91.7-.429,5.555,5.555,0,0,1,88.972.26ZM98.436,0a.726.726,0,0,1-.572-.234.8.8,0,0,1-.208-.546V-12.428a.77.77,0,0,1,.221-.546.736.736,0,0,1,.559-.234.736.736,0,0,1,.559.234.77.77,0,0,1,.221.546v3.9l-.39.078a5.958,5.958,0,0,1,.455-1.807,6.189,6.189,0,0,1,1.027-1.651,5.194,5.194,0,0,1,1.547-1.222,4.29,4.29,0,0,1,2.015-.468,2.233,2.233,0,0,1,.91.195.659.659,0,0,1,.442.637.809.809,0,0,1-.208.6.675.675,0,0,1-.494.208,1.188,1.188,0,0,1-.507-.13,1.674,1.674,0,0,0-.715-.13,2.847,2.847,0,0,0-1.456.429,5.018,5.018,0,0,0-1.326,1.157,5.968,5.968,0,0,0-.949,1.625A4.924,4.924,0,0,0,99.216-7.2V-.78a.748.748,0,0,1-.234.546A.748.748,0,0,1,98.436,0ZM113.1.26A7.121,7.121,0,0,1,109.564-.6a6.1,6.1,0,0,1-2.392-2.392,7.23,7.23,0,0,1-.858-3.588,7.625,7.625,0,0,1,.871-3.77,6.379,6.379,0,0,1,2.262-2.405A5.592,5.592,0,0,1,112.4-13.6a6.3,6.3,0,0,1,2.223.4,5.7,5.7,0,0,1,1.924,1.2,5.894,5.894,0,0,1,1.352,1.937,7.108,7.108,0,0,1,.559,2.652.8.8,0,0,1-.26.533.77.77,0,0,1-.546.221H107.224l-.312-1.4h10.244l-.338.312v-.52a3.8,3.8,0,0,0-.78-2.08,4.4,4.4,0,0,0-1.638-1.3,4.743,4.743,0,0,0-2-.442,4.475,4.475,0,0,0-1.6.312,4.2,4.2,0,0,0-1.482.975,5.016,5.016,0,0,0-1.079,1.69,6.457,6.457,0,0,0-.416,2.431,6.133,6.133,0,0,0,.624,2.782,4.791,4.791,0,0,0,1.807,1.976,5.277,5.277,0,0,0,2.821.728,4.848,4.848,0,0,0,1.638-.26,4.485,4.485,0,0,0,1.274-.689,5.26,5.26,0,0,0,.91-.9.9.9,0,0,1,.572-.234.605.605,0,0,1,.455.208.667.667,0,0,1,.195.468.714.714,0,0,1-.26.546A7.006,7.006,0,0,1,115.83-.429,5.555,5.555,0,0,1,113.1.26Zm19.578-19.5a.758.758,0,0,1,.559.221.758.758,0,0,1,.221.559V-.78a.748.748,0,0,1-.234.546.748.748,0,0,1-.546.234.736.736,0,0,1-.559-.234A.77.77,0,0,1,131.9-.78V-3.874l.442-.364a3.446,3.446,0,0,1-.39,1.521,5.156,5.156,0,0,1-1.1,1.469,5.771,5.771,0,0,1-1.664,1.092A5.027,5.027,0,0,1,127.14.26a5.6,5.6,0,0,1-3.133-.91,6.394,6.394,0,0,1-2.2-2.47A7.648,7.648,0,0,1,121-6.682a7.67,7.67,0,0,1,.806-3.549,6.31,6.31,0,0,1,2.184-2.47,5.593,5.593,0,0,1,3.12-.9,5.346,5.346,0,0,1,2.028.39,5.656,5.656,0,0,1,1.7,1.066,5.178,5.178,0,0,1,1.17,1.547,4.042,4.042,0,0,1,.429,1.807l-.546-.39V-18.46a.77.77,0,0,1,.221-.546A.736.736,0,0,1,132.678-19.24ZM127.27-1.2a4.268,4.268,0,0,0,2.457-.715,4.959,4.959,0,0,0,1.664-1.95A6.28,6.28,0,0,0,132-6.682a6.219,6.219,0,0,0-.611-2.795,4.919,4.919,0,0,0-1.677-1.95,4.285,4.285,0,0,0-2.444-.715,4.3,4.3,0,0,0-2.431.715,4.881,4.881,0,0,0-1.69,1.95,6.219,6.219,0,0,0-.611,2.795,6.3,6.3,0,0,0,.611,2.808,4.862,4.862,0,0,0,1.69,1.963A4.3,4.3,0,0,0,127.27-1.2Zm31.044-15.652a.776.776,0,0,1,.364.533.872.872,0,0,1-.156.637.646.646,0,0,1-.468.26,1,1,0,0,1-.546-.1,8.67,8.67,0,0,0-2.119-1.014,7.891,7.891,0,0,0-2.431-.364,7.711,7.711,0,0,0-2.951.559,6.891,6.891,0,0,0-2.379,1.612,7.442,7.442,0,0,0-1.573,2.483A8.57,8.57,0,0,0,145.5-9.1a8.645,8.645,0,0,0,.572,3.211,7.333,7.333,0,0,0,1.6,2.483,6.987,6.987,0,0,0,2.379,1.586,7.7,7.7,0,0,0,2.912.546,7.8,7.8,0,0,0,2.405-.364,9.268,9.268,0,0,0,2.119-.988.845.845,0,0,1,.559-.117.674.674,0,0,1,.481.3.71.71,0,0,1,.169.611.755.755,0,0,1-.351.507,9.706,9.706,0,0,1-1.534.78,11.5,11.5,0,0,1-1.872.585,9.027,9.027,0,0,1-1.976.221,9.109,9.109,0,0,1-3.51-.676,9.177,9.177,0,0,1-2.912-1.911,8.737,8.737,0,0,1-1.989-2.951,9.847,9.847,0,0,1-.715-3.822,9.7,9.7,0,0,1,.7-3.731,8.943,8.943,0,0,1,1.95-2.951,9.049,9.049,0,0,1,2.912-1.95,9.069,9.069,0,0,1,3.562-.7,9.842,9.842,0,0,1,2.86.416A9.174,9.174,0,0,1,158.314-16.848ZM163.332-.78a.748.748,0,0,1-.234.546.748.748,0,0,1-.546.234.736.736,0,0,1-.559-.234.77.77,0,0,1-.221-.546V-18.46a.748.748,0,0,1,.234-.546.748.748,0,0,1,.546-.234.736.736,0,0,1,.559.234.77.77,0,0,1,.221.546Zm5.772,0a.748.748,0,0,1-.234.546.748.748,0,0,1-.546.234.736.736,0,0,1-.559-.234.77.77,0,0,1-.221-.546V-12.74a.77.77,0,0,1,.221-.546.736.736,0,0,1,.559-.234.736.736,0,0,1,.559.234.77.77,0,0,1,.221.546Zm-.78-14.482a1.186,1.186,0,0,1-.819-.247.915.915,0,0,1-.273-.715v-.26a.874.874,0,0,1,.3-.715,1.248,1.248,0,0,1,.819-.247,1.1,1.1,0,0,1,.767.247.915.915,0,0,1,.273.715v.26a.915.915,0,0,1-.273.715A1.144,1.144,0,0,1,168.324-15.262Zm11.1,1.664a4.852,4.852,0,0,1,2.743.689,3.869,3.869,0,0,1,1.482,1.872,7.224,7.224,0,0,1,.455,2.613V-.78a.748.748,0,0,1-.234.546.748.748,0,0,1-.546.234.726.726,0,0,1-.572-.234.8.8,0,0,1-.208-.546V-8.346a5.137,5.137,0,0,0-.338-1.9,2.925,2.925,0,0,0-1.105-1.378,3.528,3.528,0,0,0-2.015-.52,4.533,4.533,0,0,0-2.119.52,4.586,4.586,0,0,0-1.625,1.378,3.153,3.153,0,0,0-.624,1.9V-.78a.748.748,0,0,1-.234.546A.748.748,0,0,1,173.94,0a.726.726,0,0,1-.572-.234.8.8,0,0,1-.208-.546V-12.428a.77.77,0,0,1,.221-.546.736.736,0,0,1,.559-.234.736.736,0,0,1,.559.234.77.77,0,0,1,.221.546v2.184l-.6.936a3.374,3.374,0,0,1,.533-1.6,5.606,5.606,0,0,1,1.235-1.378,6.075,6.075,0,0,1,1.677-.962A5.2,5.2,0,0,1,179.426-13.6ZM189.7-.78a.748.748,0,0,1-.234.546.748.748,0,0,1-.546.234.736.736,0,0,1-.559-.234.77.77,0,0,1-.221-.546V-12.74a.77.77,0,0,1,.221-.546.736.736,0,0,1,.559-.234.736.736,0,0,1,.559.234.77.77,0,0,1,.221.546Zm-.78-14.482a1.186,1.186,0,0,1-.819-.247.915.915,0,0,1-.273-.715v-.26a.874.874,0,0,1,.3-.715,1.248,1.248,0,0,1,.819-.247,1.1,1.1,0,0,1,.767.247.915.915,0,0,1,.273.715v.26a.915.915,0,0,1-.273.715A1.144,1.144,0,0,1,188.916-15.262ZM199.6-13.6a9,9,0,0,1,2.288.273,4.938,4.938,0,0,1,1.677.741,1.293,1.293,0,0,1,.637,1.014.846.846,0,0,1-.182.507.581.581,0,0,1-.494.247.787.787,0,0,1-.507-.156,3.745,3.745,0,0,1-.39-.364,1.967,1.967,0,0,0-.559-.39,4.662,4.662,0,0,0-.962-.286,7.057,7.057,0,0,0-1.43-.13,4.869,4.869,0,0,0-2.626.728,5.222,5.222,0,0,0-1.846,1.963,5.671,5.671,0,0,0-.676,2.769,5.987,5.987,0,0,0,.65,2.808,4.972,4.972,0,0,0,1.794,1.963,4.947,4.947,0,0,0,2.678.715,5.563,5.563,0,0,0,1.612-.182,5.294,5.294,0,0,0,.988-.416,2.589,2.589,0,0,0,.715-.559.715.715,0,0,1,.585-.273.635.635,0,0,1,.507.2.746.746,0,0,1,.169.507,1.349,1.349,0,0,1-.611.923,5.489,5.489,0,0,1-1.677.884A7.311,7.311,0,0,1,199.5.26a6.359,6.359,0,0,1-3.419-.91,6.263,6.263,0,0,1-2.288-2.483,7.569,7.569,0,0,1-.819-3.549,7.231,7.231,0,0,1,.832-3.458,6.607,6.607,0,0,1,2.327-2.509A6.337,6.337,0,0,1,199.6-13.6Zm6.864,11.492a1.018,1.018,0,0,1-.2-.611A.575.575,0,0,1,206.6-3.2a.614.614,0,0,1,.481-.156.823.823,0,0,1,.507.26,5.543,5.543,0,0,0,1.7,1.469,4.8,4.8,0,0,0,2.379.559,4.393,4.393,0,0,0,1.443-.247,2.838,2.838,0,0,0,1.183-.754,1.824,1.824,0,0,0,.468-1.287,1.813,1.813,0,0,0-.468-1.3,3.242,3.242,0,0,0-1.209-.78,13.375,13.375,0,0,0-1.573-.494q-.884-.234-1.716-.533a6.006,6.006,0,0,1-1.469-.754,3.666,3.666,0,0,1-1.027-1.1,3.03,3.03,0,0,1-.39-1.586,3.211,3.211,0,0,1,.6-1.924,3.988,3.988,0,0,1,1.625-1.3,5.552,5.552,0,0,1,2.327-.468,6.443,6.443,0,0,1,1.4.169,5.834,5.834,0,0,1,1.482.559,4.454,4.454,0,0,1,1.3,1.066.734.734,0,0,1,.234.533.7.7,0,0,1-.26.533.78.78,0,0,1-.481.156.58.58,0,0,1-.455-.208,4.105,4.105,0,0,0-1.482-1.066,4.677,4.677,0,0,0-1.846-.364,4.026,4.026,0,0,0-1.417.247,2.737,2.737,0,0,0-1.1.741,1.876,1.876,0,0,0-.442,1.3,1.812,1.812,0,0,0,.533,1.222,3.793,3.793,0,0,0,1.274.78,16.012,16.012,0,0,0,1.781.572,14.954,14.954,0,0,1,1.6.494,5.551,5.551,0,0,1,1.352.715,3.212,3.212,0,0,1,.936,1.079,3.421,3.421,0,0,1,.351,1.638,3.156,3.156,0,0,1-.637,1.976,4.041,4.041,0,0,1-1.7,1.274A6.121,6.121,0,0,1,211.51.26a7.01,7.01,0,0,1-2.717-.546A5.847,5.847,0,0,1,206.466-2.106Z" transform="translate(121.505 89.229)" fill="#fff"/>
</svg>
