<svg enable-background="new 0 0 24 24" height="512" viewBox="0 0 24 24" width="512" xmlns="http://www.w3.org/2000/svg"><g fill="#2196f3"><path d="m8.236 19.854c-.189 0-.382-.054-.552-.167-.46-.305-.586-.926-.28-1.386.282-.426.445-.737.456-.759.254-.49.854-.682 1.345-.431s.685.853.435 1.344c0 0-.203.399-.569.951-.193.291-.51.448-.835.448z"/><path d="m4.25 22.75c-.613 0-1.14-.072-1.609-.22-.527-.166-.82-.728-.654-1.254.166-.528.729-.819 1.254-.654.413.13 1.015.241 1.663.006.518-.185 1.092.08 1.281.6.188.519-.08 1.093-.6 1.281-.441.16-.891.241-1.335.241z"/><path d="m1.029 19.251c-.522 0-.962-.405-.997-.935-.021-.333-.032-.688-.032-1.066 0-.553.447-1 1-1s1 .447 1 1c0 .331.009.644.028.936.036.551-.382 1.027-.933 1.063-.022.001-.043.002-.066.002z"/></g><g fill="#579ed6"><path d="m8.236 19.854c-.189 0-.382-.054-.552-.167-.46-.305-.586-.926-.28-1.386.282-.426.445-.737.456-.759.254-.49.854-.682 1.345-.431s.685.853.435 1.344c0 0-.203.399-.569.951-.193.291-.51.448-.835.448z"/><path d="m4.25 22.75c-.613 0-1.14-.072-1.609-.22-.527-.166-.82-.728-.654-1.254.166-.528.729-.819 1.254-.654.413.13 1.015.241 1.663.006.518-.185 1.092.08 1.281.6.188.519-.08 1.093-.6 1.281-.441.16-.891.241-1.335.241z"/><path d="m1.029 19.251c-.522 0-.962-.405-.997-.935-.021-.333-.032-.688-.032-1.066 0-.553.447-1 1-1s1 .447 1 1c0 .331.009.644.028.936.036.551-.382 1.027-.933 1.063-.022.001-.043.002-.066.002z"/></g><path d="m12.575 13.891-3.786-1.583c-.231-.095-.495-.07-.705.068-.209.139-.334.373-.334.624v5.75c0 .31.19.588.48.699.087.034.179.051.27.051.207 0 .41-.086.555-.246l3.786-4.167c.163-.18.229-.429.177-.667-.053-.237-.218-.435-.443-.529z" fill="#2196f3"/><path d="m23.76.2c-.209-.195-.514-.253-.781-.149l-22.5 8.75c-.29.112-.48.391-.479.702s.193.588.483.698l17.75 6.75.267.049c.113 0 .227-.025.33-.076.186-.092.326-.256.387-.454l4.75-15.5c.084-.275.004-.574-.207-.77z" fill="#64b5f6"/><path d="m7.75 13 11.25-8-8.417 9.333z" fill="#2196f3"/><path d="m7.75 13v3.207l2.181-2.181zm.001-.035c-.001.012-.001.023-.001.035l.033-.023z" fill="#1d83d4"/><path d="m18.851 5.106-11.068 7.871-.033.023 2.181 1.026z" fill="#1d83d4"/><path d="m23.25 0c-.091 0-.183.017-.271.051l-22.5 8.75c-.29.112-.48.391-.479.702s.193.588.483.698l7.267 2.764.032.012 11.068-7.871 4.907-4.907c-.139-.13-.321-.199-.507-.199z" fill="#579ed6"/></svg>