<svg id="Capa_1" enable-background="new 0 0 512 512" height="512" viewBox="0 0 512 512" width="512" xmlns="http://www.w3.org/2000/svg"><g><g><path d="m228.474 96.465v-34.456c0-8.427-6.832-15.259-15.259-15.259-8.427 0-15.259 6.832-15.259 15.259v91.886 28.639c0 16.815 13.631 30.446 30.446 30.446h54.055c9.001 0 17.54-3.983 23.325-10.878l59.936-71.444c4.912-5.855 4.194-14.572-1.608-19.545-5.425-4.65-13.488-4.446-18.671.473l-19.617 18.62c-1.903 1.807-5.045.471-5.065-2.153l-.727-96.488c0-8.427-6.832-15.259-15.259-15.259-8.427 0-15.259 6.832-15.259 15.259v47.994z" fill="#ffcebf"/><path d="m289.512 96.465v-81.206c0-8.427-6.832-15.259-15.26-15.259-8.427 0-15.259 6.832-15.259 15.259v79.183z" fill="#ffcebf"/><path d="m275.48.049c-3.245-.258-6.284.518-8.857 2.009 4.557 2.639 7.63 7.556 7.63 13.201v73.054c0 4.018 3.116 7.347 7.125 7.613 4.403.292 8.134-3.201 8.134-7.613v-72.63c0-8.029-6.028-14.998-14.032-15.634z" fill="#ffb09e"/><path d="m258.993 96.465v-64.902c0-8.427-6.832-15.259-15.259-15.259-8.427 0-15.259 6.832-15.259 15.259v72.56z" fill="#ffcebf"/><path d="m244.961 16.353c-3.245-.258-6.284.518-8.857 2.009 4.557 2.639 7.63 7.556 7.63 13.201v62.905c0 4.018 3.116 7.347 7.125 7.613 4.403.292 8.134-3.201 8.134-7.613v-62.481c0-8.029-6.028-14.998-14.032-15.634z" fill="#ffb09e"/><path d="m214.443 46.785c-3.245-.258-6.284.518-8.857 2.009 4.557 2.639 7.63 7.556 7.63 13.201v32.459c0 4.018 3.116 7.347 7.125 7.613 4.403.292 8.134-3.201 8.134-7.613v-32.034c-.001-8.029-6.028-14.998-14.032-15.635z" fill="#ffb09e"/><path d="m197.956 501.851v-268.574c0-11.21 9.087-20.297 20.297-20.297h75.928c11.21 0 20.297 9.087 20.297 20.297v268.574c0 5.605-4.544 10.149-10.149 10.149h-96.225c-5.604 0-10.148-4.544-10.148-10.149z" fill="#fe646f"/><path d="m197.956 250.17h116.522v15.223h-116.522z" fill="#fd4755"/></g><g><path d="m348.138 501.851v-118.293c0-10.655 8.638-19.293 19.293-19.293h72.169c10.655 0 19.293 8.638 19.293 19.293v118.293c0 5.605-4.544 10.149-10.149 10.149h-90.457c-5.605 0-10.149-4.544-10.149-10.149z" fill="#8ac9fe"/><path d="m348.138 399.238h110.754v15.223h-110.754z" fill="#60b7ff"/></g><g><g fill="#ffcebf"><path d="m134.854 253.519v-32.75c0-8.01 6.494-14.504 14.504-14.504 8.01 0 14.504 6.494 14.504 14.504v87.337 27.221c0 15.982-12.956 28.939-28.939 28.939h-51.38c-8.555 0-16.672-3.785-22.17-10.34l-56.969-67.908c-4.668-5.565-3.987-13.851 1.528-18.578 5.157-4.42 12.82-4.226 17.746.45l18.323 17.392c1.932 1.834 5.12.478 5.14-2.185l.688-91.267c0-8.01 6.494-14.504 14.504-14.504 8.01 0 14.504 6.494 14.504 14.504v45.618z"/><path d="m76.838 253.519v-77.186c0-8.01 6.494-14.504 14.504-14.504 8.01 0 14.504 6.494 14.504 14.504v76.77z"/><path d="m105.846 253.519v-61.689c0-8.01 6.494-14.504 14.504-14.504 8.01 0 14.504 6.494 14.504 14.504v69.973z"/></g><path d="m120.35 177.326c-2.348 0-4.558.57-6.52 1.561 4.732 2.389 7.984 7.28 7.984 12.943v61.331c0 2.911 1.93 5.47 4.729 6.269 4.165 1.189 8.31-1.938 8.31-6.269v-61.331c.001-8.01-6.493-14.504-14.503-14.504z" fill="#ffb09e"/><path d="m91.342 161.829c-2.348 0-4.558.57-6.52 1.561 4.732 2.389 7.984 7.28 7.984 12.943v71.479c0 2.911 1.93 5.47 4.729 6.269 4.165 1.189 8.31-1.938 8.31-6.269v-71.479c.001-8.01-6.493-14.504-14.503-14.504z" fill="#ffb09e"/><path d="m62.334 177.326c-2.348 0-4.558.57-6.52 1.561 4.732 2.389 7.984 7.28 7.984 12.943v61.331c0 2.911 1.93 5.47 4.729 6.269 4.165 1.189 8.31-1.938 8.31-6.269v-61.331c.001-8.01-6.492-14.504-14.503-14.504z" fill="#ffb09e"/><path d="m163.862 501.851v-118.293c0-10.655-8.638-19.293-19.293-19.293h-72.169c-10.655 0-19.293 8.638-19.293 19.293v118.293c0 5.605 4.544 10.149 10.149 10.149h90.457c5.605 0 10.149-4.544 10.149-10.149z" fill="#fee45a"/><path d="m53.108 399.238h110.754v15.223h-110.754z" fill="#fed402"/></g><g><g fill="#ffcebf"><path d="m377.146 253.519v-32.75c0-8.01-6.494-14.504-14.504-14.504-8.01 0-14.504 6.494-14.504 14.504v87.337 27.221c0 15.982 12.956 28.939 28.939 28.939h51.379c8.555 0 16.672-3.785 22.17-10.34l56.969-67.907c4.668-5.565 3.987-13.851-1.528-18.578-5.157-4.42-12.82-4.226-17.746.45l-18.323 17.392c-1.932 1.834-5.12.478-5.141-2.185l-.688-91.267c0-8.01-6.494-14.504-14.504-14.504-8.01 0-14.504 6.494-14.504 14.504v45.618z"/><path d="m435.162 253.519v-77.186c0-8.01-6.494-14.504-14.504-14.504-8.01 0-14.504 6.494-14.504 14.504v76.77z"/><path d="m406.154 253.519v-61.689c0-8.01-6.494-14.504-14.504-14.504-8.01 0-14.504 6.494-14.504 14.504v69.973z"/></g><path d="m391.65 177.326c-2.348 0-4.558.57-6.52 1.561 4.732 2.389 7.984 7.28 7.984 12.943v61.331c0 2.911 1.93 5.47 4.729 6.269 4.165 1.189 8.31-1.938 8.31-6.269v-61.331c.001-8.01-6.493-14.504-14.503-14.504z" fill="#ffb09e"/><path d="m420.658 161.829c-2.348 0-4.558.57-6.52 1.561 4.732 2.389 7.984 7.28 7.984 12.943v71.479c0 2.911 1.93 5.47 4.729 6.269 4.165 1.189 8.31-1.938 8.31-6.269v-71.479c.001-8.01-6.493-14.504-14.503-14.504z" fill="#ffb09e"/><path d="m449.687 177.326c-2.348 0-4.558.57-6.52 1.561 4.732 2.389 7.984 7.28 7.984 12.943v61.331c0 2.911 1.93 5.47 4.729 6.269 4.165 1.189 8.31-1.938 8.31-6.269v-61.331c.001-8.01-6.492-14.504-14.503-14.504z" fill="#ffb09e"/></g></g></svg>