<svg id="Component_66_1" data-name="Component 66 – 1" xmlns="http://www.w3.org/2000/svg" width="74.24" height="32.361" viewBox="0 0 74.24 32.361">
  <path id="Path_520" data-name="Path 520" d="M0-2,72.871,3.279,74.24,29.361,0,22Z" transform="translate(0 3)" fill="#000e1f"/>
  <path id="Path_521" data-name="Path 521" d="M0-3H68V22H0Z" transform="translate(0 3)" fill="#f2ee82"/>
  <path id="Path_522" data-name="Path 522" d="M5.3-6.8a.807.807,0,0,1,.348.282.886.886,0,0,1,.166.4.536.536,0,0,1-.077.37.543.543,0,0,1-.37.221,4.885,4.885,0,0,1-.956.077q-.448-.011-.779-.011,0,1.326.011,2.608T3.635-.144A.5.5,0,0,1,3.425.3.7.7,0,0,1,2.967.42a.813.813,0,0,1-.459-.2A.6.6,0,0,1,2.3-.265q-.011-1.3-.011-2.6v-2.6q-.1,0-.337.011t-.519.006a5.326,5.326,0,0,1-.58-.044,1.622,1.622,0,0,1-.519-.149A.434.434,0,0,1,.1-5.9a.59.59,0,0,1-.006-.348.869.869,0,0,1,.182-.331.659.659,0,0,1,.331-.21q.928-.055,1.8-.039t1.762.017q.265,0,.53-.006t.541-.006Zm4.95,6.309a.674.674,0,0,1-.033.53.6.6,0,0,1-.337.282.714.714,0,0,1-.47-.017.913.913,0,0,1-.442-.354,2.071,2.071,0,0,1-.6.326,2.423,2.423,0,0,1-.669.1A2.791,2.791,0,0,1,6.7.26,1.925,1.925,0,0,1,5.95-.188,1.792,1.792,0,0,1,5.5-.934a2.707,2.707,0,0,1-.1-1.033,2.913,2.913,0,0,1,.083-.475q.061-.232.138-.453a3.282,3.282,0,0,1,.249-.519A3.433,3.433,0,0,1,6.2-3.89a3.351,3.351,0,0,1,1.492-1.05,2.537,2.537,0,0,1,.42-.1,2.894,2.894,0,0,1,.536-.039,2.181,2.181,0,0,1,.519.072.646.646,0,0,1,.37.232,1.251,1.251,0,0,1,.144.232.584.584,0,0,1,.05.21q.006.11,0,.238t-.006.315q0,.309-.006.6t.006.591v.26q0,.16.011.337t.028.337a1.25,1.25,0,0,0,.05.26Zm-2.343-.5q.122-.077.276-.171a1.46,1.46,0,0,0,.276-.215,8.409,8.409,0,0,1-.116-1.171q-.017-.586.006-1.182a1.847,1.847,0,0,0-.9.431,1.808,1.808,0,0,0-.552.807A3.334,3.334,0,0,0,6.8-2.1a1.4,1.4,0,0,0-.033.387.777.777,0,0,0,.133.425.818.818,0,0,0,.293.26.9.9,0,0,0,.365.1A.828.828,0,0,0,7.912-.983Zm4.519.63a.789.789,0,0,1-.287.525.712.712,0,0,1-.459.149.62.62,0,0,1-.42-.193.679.679,0,0,1-.182-.5v-6.3a.529.529,0,0,1,.094-.3.775.775,0,0,1,.238-.227.854.854,0,0,1,.315-.116.746.746,0,0,1,.315.011.481.481,0,0,1,.249.166.578.578,0,0,1,.116.348q.033.862.033,1.547t-.011,1.381q.254-.188.481-.392t.448-.425a4.612,4.612,0,0,0,.387-.47.968.968,0,0,1,.475-.359.722.722,0,0,1,.392-.022.642.642,0,0,1,.309.171.642.642,0,0,1,.171.309.722.722,0,0,1-.022.392,1.4,1.4,0,0,1-.249.387q-.193.232-.431.475t-.47.448q-.232.2-.376.315.387.42.762.851t.762.862q.166.188.315.337a1.474,1.474,0,0,1,.26.359.573.573,0,0,1,.055.365.681.681,0,0,1-.149.326.7.7,0,0,1-.287.2.575.575,0,0,1-.37.011,1.01,1.01,0,0,1-.365-.2,3.507,3.507,0,0,1-.337-.326q-.16-.177-.3-.365t-.265-.32l-.591-.68q-.293-.337-.6-.657Zm7.646-1.127a.885.885,0,0,1,.47-.006.6.6,0,0,1,.315.2.516.516,0,0,1,.1.354.813.813,0,0,1-.188.442,1.172,1.172,0,0,1-.4.32,3.628,3.628,0,0,1-.475.21A5.5,5.5,0,0,1,18.873.32a2.7,2.7,0,0,1-.912,0,2.131,2.131,0,0,1-.8-.32,2.7,2.7,0,0,1-.691-.685,2.039,2.039,0,0,1-.326-.68,3.265,3.265,0,0,1-.116-.779,3.493,3.493,0,0,1,.066-.785,3.087,3.087,0,0,1,.221-.7,2.044,2.044,0,0,1,.6-.707,3.416,3.416,0,0,1,.906-.508,3.367,3.367,0,0,1,1.017-.215,1.884,1.884,0,0,1,.917.16,1.593,1.593,0,0,1,.569.448,1.659,1.659,0,0,1,.326.635,1.508,1.508,0,0,1,.017.691,1.25,1.25,0,0,1-.359.635,2.443,2.443,0,0,1-.608.448,5.664,5.664,0,0,1-.685.3,6.827,6.827,0,0,1-.724.215q-.37.088-.713.2a1.017,1.017,0,0,0,.53.337,1.681,1.681,0,0,0,.624.028,2.624,2.624,0,0,0,.657-.182,5.37,5.37,0,0,0,.619-.3Zm-2.232-1.9a.957.957,0,0,0-.376.359,1.751,1.751,0,0,0-.177.6q.287-.088.646-.188t.68-.21a2.886,2.886,0,0,0,.541-.243q.221-.133.221-.287a.538.538,0,0,0-.028-.171.182.182,0,0,0-.116-.116A1.182,1.182,0,0,0,18.6-3.68a1.938,1.938,0,0,0-.552.188Zm12.674,2.9a.674.674,0,0,1-.033.53.6.6,0,0,1-.337.282.714.714,0,0,1-.47-.017.913.913,0,0,1-.442-.354,2.071,2.071,0,0,1-.6.326,2.423,2.423,0,0,1-.669.1A2.791,2.791,0,0,1,26.961.26a1.925,1.925,0,0,1-.746-.448,1.792,1.792,0,0,1-.448-.746,2.707,2.707,0,0,1-.1-1.033,2.913,2.913,0,0,1,.083-.475q.061-.232.138-.453a3.282,3.282,0,0,1,.249-.519,3.432,3.432,0,0,1,.326-.475,3.351,3.351,0,0,1,1.492-1.05,2.537,2.537,0,0,1,.42-.1,2.894,2.894,0,0,1,.536-.039,2.181,2.181,0,0,1,.519.072.646.646,0,0,1,.37.232,1.251,1.251,0,0,1,.144.232.584.584,0,0,1,.05.21q.006.11,0,.238t-.006.315q0,.309-.006.6t.006.591v.26q0,.16.011.337t.028.337a1.25,1.25,0,0,0,.05.26Zm-2.343-.5q.122-.077.276-.171a1.46,1.46,0,0,0,.276-.215,8.409,8.409,0,0,1-.116-1.171q-.017-.586.006-1.182a1.847,1.847,0,0,0-.9.431,1.808,1.808,0,0,0-.552.807,3.334,3.334,0,0,0-.11.387,1.4,1.4,0,0,0-.033.387.777.777,0,0,0,.133.425.818.818,0,0,0,.293.26.9.9,0,0,0,.365.1A.828.828,0,0,0,28.177-.983Zm11.669.7a.761.761,0,0,1-.2.453.74.74,0,0,1-.387.221A.622.622,0,0,1,38.84.331a.6.6,0,0,1-.287-.387A1.725,1.725,0,0,1,38.475-.7q.022-.337.022-.624,0-.6.006-1.188a11.691,11.691,0,0,0-.05-1.188.361.361,0,0,0-.022-.039.386.386,0,0,0-.044-.05.919.919,0,0,0-.541.033,1.681,1.681,0,0,0-.486.254,1.863,1.863,0,0,0-.348.392.851.851,0,0,0-.171.481V-1.1q0,.177.011.387a2.146,2.146,0,0,1-.017.409.957.957,0,0,1-.127.365.579.579,0,0,1-.32.243.507.507,0,0,1-.227.033.962.962,0,0,1-.227-.055A.488.488,0,0,1,35.646.05a1.118,1.118,0,0,1-.122-.343A1.673,1.673,0,0,1,35.5-.646q.006-.171.006-.271,0-.254-.006-.735t-.006-1.011V-4.409a.582.582,0,0,1,.144-.4.671.671,0,0,1,.337-.21A.712.712,0,0,1,36.381-5a.686.686,0,0,1,.359.293,2.668,2.668,0,0,1,.972-.387,2.168,2.168,0,0,1,1,.033,1.582,1.582,0,0,1,.785.5,1.531,1.531,0,0,1,.326,1.006q0,.022.011.133t.011.309Zm.961-2.354a3.635,3.635,0,0,1,.215-.63,3.491,3.491,0,0,1,.337-.591,3.318,3.318,0,0,1,.448-.514,2.276,2.276,0,0,1,.536-.376,2.244,2.244,0,0,1,1.022-.271,2.144,2.144,0,0,1,.956.2,2,2,0,0,1,.751.624,2.273,2.273,0,0,1,.409.989,5.531,5.531,0,0,1,.061.713,3.131,3.131,0,0,1-.072.7,3.04,3.04,0,0,1-.448,1.033A3.342,3.342,0,0,1,44.215.1a2.534,2.534,0,0,1-1.028.459A1.692,1.692,0,0,1,42.066.387,2.462,2.462,0,0,1,41.608.1a2.023,2.023,0,0,1-.37-.381,2.086,2.086,0,0,1-.293-.508,3.853,3.853,0,0,1-.171-.552,1.986,1.986,0,0,1-.055-.624,5.469,5.469,0,0,1,.077-.613Zm1.326.232q-.033.177-.055.348a1.376,1.376,0,0,0,0,.348,1.449,1.449,0,0,0,.138.464.879.879,0,0,0,.276.331.692.692,0,0,0,.392.127.926.926,0,0,0,.475-.138,1.587,1.587,0,0,0,.552-.58,2.134,2.134,0,0,0,.287-.818,1.651,1.651,0,0,0-.088-.807.931.931,0,0,0-.564-.547,1.219,1.219,0,0,0-.508.1,1.353,1.353,0,0,0-.4.276,1.764,1.764,0,0,0-.3.4A2.563,2.563,0,0,0,42.133-2.409Zm4.42-1.271a.95.95,0,0,1-.381-.188.691.691,0,0,1-.221-.309.562.562,0,0,1,0-.365.706.706,0,0,1,.271-.343.646.646,0,0,1,.4-.133h.431q0-.077-.011-.337t-.006-.569q.006-.309.039-.591a.8.8,0,0,1,.122-.392A.612.612,0,0,1,47.74-7.2a.677.677,0,0,1,.536.315.746.746,0,0,1,.083.133.324.324,0,0,1,.039.144q.011.4.006.8t-.006.8h.873a.488.488,0,0,1,.343.133.747.747,0,0,1,.2.309.764.764,0,0,1,.033.365.485.485,0,0,1-.171.309.952.952,0,0,1-.591.221q-.337.011-.691.011,0,.608-.006,1.215T48.4-1.238q0,.265.028.541a1.5,1.5,0,0,1-.039.53A.63.63,0,0,1,48.2.149a.6.6,0,0,1-.3.144.779.779,0,0,1-.343-.022.869.869,0,0,1-.331-.182.524.524,0,0,1-.116-.265,2.667,2.667,0,0,1-.05-.4q-.011-.243,0-.519v-.575q0-.354-.006-.735t-.006-.724v-.541Zm7.459,2.2a.885.885,0,0,1,.47-.006.6.6,0,0,1,.315.2.516.516,0,0,1,.1.354.813.813,0,0,1-.188.442,1.172,1.172,0,0,1-.4.32,3.628,3.628,0,0,1-.475.21A5.5,5.5,0,0,1,52.807.32a2.7,2.7,0,0,1-.912,0A2.131,2.131,0,0,1,51.1,0a2.7,2.7,0,0,1-.691-.685,2.039,2.039,0,0,1-.326-.68,3.265,3.265,0,0,1-.116-.779,3.493,3.493,0,0,1,.066-.785,3.087,3.087,0,0,1,.221-.7,2.044,2.044,0,0,1,.6-.707,3.416,3.416,0,0,1,.906-.508,3.367,3.367,0,0,1,1.017-.215,1.884,1.884,0,0,1,.917.16,1.593,1.593,0,0,1,.569.448,1.659,1.659,0,0,1,.326.635,1.508,1.508,0,0,1,.017.691,1.25,1.25,0,0,1-.359.635,2.443,2.443,0,0,1-.608.448,5.663,5.663,0,0,1-.685.3,6.827,6.827,0,0,1-.724.215q-.37.088-.713.2a1.017,1.017,0,0,0,.53.337,1.681,1.681,0,0,0,.624.028,2.624,2.624,0,0,0,.657-.182,5.37,5.37,0,0,0,.619-.3Zm-2.232-1.9a.957.957,0,0,0-.376.359,1.751,1.751,0,0,0-.177.6q.287-.088.646-.188t.68-.21a2.886,2.886,0,0,0,.541-.243q.221-.133.221-.287a.538.538,0,0,0-.028-.171.182.182,0,0,0-.116-.116,1.182,1.182,0,0,0-.641-.044,1.938,1.938,0,0,0-.552.188Z" transform="translate(7 17)" fill="#9E4784"/>
</svg>
