<svg enable-background="new 0 0 24 24" height="512" viewBox="0 0 24 24" width="512" xmlns="http://www.w3.org/2000/svg"><path d="m21.25 0h-18.5c-1.517 0-2.75 1.233-2.75 2.75v18.5c0 1.517 1.233 2.75 2.75 2.75h18.5c1.517 0 2.75-1.233 2.75-2.75v-18.5c0-1.517-1.233-2.75-2.75-2.75zm-.317 12.312c-1.579 3.455-5.085 5.688-8.933 5.688s-7.354-2.233-8.933-5.688c-.09-.198-.09-.425 0-.623 1.579-3.456 5.085-5.689 8.933-5.689s7.354 2.233 8.933 5.688c.089.198.089.426 0 .624z" fill="#ccc"/><circle cx="12" cy="12" r="3" fill="#ccc"/></svg>