<?xml version="1.0" encoding="windows-1252"?>
<!-- Generator: Adobe Illustrator 19.0.0, SVG Export Plug-In . SVG Version: 6.00 Build 0)  -->
<svg version="1.1" id="Capa_1" xmlns="http://www.w3.org/2000/svg" xmlns:xlink="http://www.w3.org/1999/xlink" x="0px" y="0px" viewBox="0 0 512 512" style="enable-background:new 0 0 512 512;" xml:space="preserve">
<g>
	<g>
		<g>
			<path d="M362.667,0c-47.052,0-85.333,38.281-85.333,85.333c0,47.052,38.281,85.333,85.333,85.333     c47.052,0,85.333-38.281,85.333-85.333C448,38.281,409.719,0,362.667,0z M380.875,103.542c-2.083,2.083-4.813,3.125-7.542,3.125     c-2.729,0-5.458-1.042-7.542-3.125l-10.667-10.667c-2-2-3.125-4.708-3.125-7.542v-32c0-5.896,4.771-10.667,10.667-10.667     s10.667,4.771,10.667,10.667v27.583l7.542,7.542C385.042,92.625,385.042,99.375,380.875,103.542z" fill="#999"/>
			<path d="M268.906,277.333h-55.573C201.573,277.333,192,267.76,192,256v-85.333C192,147.135,172.865,128,149.333,128     s-42.667,19.135-42.667,42.667V288c0,20.901,8.688,39.766,22.577,53.333h-22.577c-11.76,0-21.333-9.573-21.333-21.333V138.667     c0-5.896-4.771-10.667-10.667-10.667C68.771,128,64,132.771,64,138.667V320c0,23.531,19.135,42.667,42.667,42.667H128v128H96     c-5.896,0-10.667,4.771-10.667,10.667C85.333,507.229,90.104,512,96,512h85.333c5.896,0,10.667-4.771,10.667-10.667     c0-5.896-4.771-10.667-10.667-10.667h-32v-128h85.333v116.156c0,18.292,14.885,33.177,33.177,33.177     c16.927,0,31.115-12.688,32.969-29.354l18.875-148.563c0.208-1.885,0.313-3.771,0.313-5.656     C320,300.25,297.083,277.333,268.906,277.333z" fill="#999"/>
			<circle cx="160" cy="53.333" r="53.333" fill="#999"/>
		</g>
	</g>
</g>
<g>
</g>
<g>
</g>
<g>
</g>
<g>
</g>
<g>
</g>
<g>
</g>
<g>
</g>
<g>
</g>
<g>
</g>
<g>
</g>
<g>
</g>
<g>
</g>
<g>
</g>
<g>
</g>
<g>
</g>
</svg>