<svg id="color" enable-background="new 0 0 24 24" height="512" viewBox="0 0 24 24" width="512" xmlns="http://www.w3.org/2000/svg"><path d="m24 8.65v1.59l-11.07 5.78c-.58.301-1.279.301-1.859 0l-11.071-5.78v-1.59c0-.83.46-1.59 1.19-1.98l9.75-5.21c.659-.35 1.46-.35 2.119 0l9.75 5.21c.731.39 1.191 1.15 1.191 1.98z" fill="#2196f3"/><path d="m21 2.75c0-1.519-1.231-2.75-2.75-2.75h-12.5c-1.519 0-2.75 1.231-2.75 2.75v17.32c0 .414.336.75.75.75h16.5c.414 0 .75-.336.75-.75z" fill="#eceff1"/><path d="m24 10.24v10.51c0 1.24-1.01 2.25-2.25 2.25h-19.5c-1.24 0-2.25-1.01-2.25-2.25v-10.51l11.07 5.779c.58.301 1.279.301 1.859 0z" fill="#64b5f6"/><path d="m3 5.703-1.81.967c-.73.39-1.19 1.15-1.19 1.98v1.59l3 1.566z" fill="#1d83d4"/><path d="m12 0h-6.25c-1.519 0-2.75 1.231-2.75 2.75v2.953 6.103l8.07 4.213c.29.15.61.226.93.226z" fill="#cdd0d2"/><path d="m0 10.24v10.51c0 1.24 1.01 2.25 2.25 2.25h9.75v-6.755c-.32 0-.64-.075-.93-.226l-8.07-4.213z" fill="#579ed6"/><path d="m10.25 12.275c-1.24 0-2.25-1.009-2.25-2.25 0-.788.415-1.52 1.083-1.908.358-.208.817-.086 1.025.271.208.358.087.817-.271 1.025-.211.123-.337.352-.337.612 0 .414.337.75.75.75s.75-.337.75-.75c0-.107-.021-.199-.063-.279-.193-.366-.054-.82.312-1.014.365-.195.819-.054 1.014.312.157.298.237.628.237.981 0 1.241-1.01 2.25-2.25 2.25z" fill="#ff9800"/><path d="m17.25 11.799c-.07 0-.142-.01-.211-.03l-10.5-3.074c-.319-.094-.539-.387-.539-.72v-1.5c0-.335.222-.629.544-.721l10.5-3c.225-.063.471-.02.657.123.189.141.299.363.299.598v7.574c0 .236-.111.458-.301.6-.131.099-.289.15-.449.15z" fill="#ffc107"/><path d="m17.25 12.225c-.414 0-.75-.336-.75-.75v-8.5c0-.414.336-.75.75-.75s.75.336.75.75v8.5c0 .414-.336.75-.75.75z" fill="#ffb300"/><path d="m6.75 9.225c-.414 0-.75-.336-.75-.75v-2.5c0-.414.336-.75.75-.75s.75.336.75.75v2.5c0 .414-.336.75-.75.75z" fill="#ffb300"/><g><path d="m12.497 10.17h-1.506c-.058.356-.368.63-.74.63s-.683-.273-.74-.63h-1.508c.063 1.186 1.047 2.13 2.247 2.13s2.184-.945 2.247-2.13z" fill="#de8400"/><path d="m16.5 7.287h-9v1.213c0 .171-.058.329-.154.456l9.167 2.683c-.008-.045-.013-.092-.013-.139z" fill="#dea806"/><g fill="#de9c00"><path d="m18 7.287h-1.5v4.213c0 .047.004.094.013.139.065.348.371.611.737.611.414 0 .75-.336.75-.75z"/><path d="m7.5 7.287h-1.5v.713.5c0 .414.336.75.75.75.243 0 .458-.115.596-.294.097-.127.154-.285.154-.456z"/></g></g></svg>