<?xml version="1.0" ?><svg viewBox="0 0 512 512" xmlns="http://www.w3.org/2000/svg"><defs><style>.cls-1{fill:#575757;}.cls-2{fill:#4a4a4a;}.cls-3{fill:#6e6e6e;}.cls-4{fill:#fda5a3;}.cls-5{fill:#00659d;}.cls-6{fill:#5ca4cc;}.cls-7{fill:#46c89d;}.cls-8{fill:#00b378;}.cls-9{fill:#00a16c;}.cls-10{fill:#cbe2ef;}.cls-11{fill:#338dbf;}.cls-12{fill:#59cea7;}.cls-13{fill:#0071af;}.cls-14{fill:#bdecdc;}.cls-15{fill:#096;}.cls-16{fill:#005686;}.cls-17{fill:#2c78a3;}.cls-18{fill:#4e8cae;}.cls-19{fill:#d78d8b;}.cls-20{fill:#a1c9bc;}.cls-21{fill:#3caa86;}.cls-22{fill:#006095;}</style></defs><title/><g data-name="/ FILLED_OUTLINE" id="_FILLED_OUTLINE"><circle class="cls-1" cx="96" cy="432" r="56"/><path class="cls-2" d="M73,483.05566a55.99435,55.99435,0,0,0,74.05566-74.05578A112.25219,112.25219,0,0,1,73,483.05566Z"/><circle class="cls-3" cx="96" cy="432" r="16"/><path class="cls-4" d="M192,168v32H176a16,16,0,0,1-16-16v0a16,16,0,0,1,16-16Z"/><rect class="cls-5" height="32" width="120" x="192" y="168"/><path class="cls-6" d="M177.80127,152H130.98a39.49007,39.49007,0,0,0-30.83667,14.82086v.00006a39.49011,39.49011,0,0,0,.49927,49.95032l13.34277,16.01111a16.00049,16.00049,0,0,1,2.64209,15.98663L80,344h56l56.98-170.94037A15.99983,15.99983,0,0,0,177.80127,152Z"/><path class="cls-1" d="M240,360H228a20.00005,20.00005,0,0,0-20,20h0a20.00005,20.00005,0,0,0,20,20h32a20,20,0,0,0,20-20V328a24,24,0,0,1,24-24h40a16,16,0,0,0,16-16V240H296v16a16,16,0,0,1-16,16h-8a32,32,0,0,0-32,32Z"/><path class="cls-4" d="M350.62744,150.62738l-1.94092-1.9411A15.99865,15.99865,0,0,1,344,137.37256V72H264V98.3349a32,32,0,0,0,20.11523,29.7113l9.82715,3.93067A16.00037,16.00037,0,0,1,304,146.83252V160l-8,8v72h64V173.25482A32.00078,32.00078,0,0,0,350.62744,150.62738Z"/><path class="cls-7" d="M334.70361,72l-60.11377,50.09479a31.92752,31.92752,0,0,0,9.52539,5.95141l5.62549,2.25006L344,85.08026V72Z"/><path class="cls-5" d="M350.62744,150.62738l-1.94184-1.942A15.9995,15.9995,0,0,1,344,137.37256V136h-9.37258a16,16,0,0,0-11.31371,4.68629L296,168v72h64V173.25625A32.00357,32.00357,0,0,0,350.62744,150.62738Z"/><rect class="cls-8" height="144" rx="16" width="128" x="360" y="160"/><path class="cls-9" d="M360,192H488V176a16,16,0,0,0-16-16H376a16,16,0,0,0-16,16Z"/><rect class="cls-10" height="16" width="64" x="400" y="112"/><rect class="cls-10" height="16" width="64" x="416" y="80"/><rect class="cls-10" height="16" width="48" x="448" y="48"/><path class="cls-5" d="M280,360H228a20,20,0,0,0-20,20v0a20,20,0,0,0,20,20h32a20,20,0,0,0,20-20Z"/><path class="cls-11" d="M464,304H304a23.99994,23.99994,0,0,0-24,24v8H488v-8A23.99994,23.99994,0,0,0,464,304Z"/><rect class="cls-12" height="24" width="16" x="416" y="216"/><path class="cls-13" d="M273.37256,190.62738A32,32,0,0,1,250.74512,200H168a16,16,0,0,0-16,16v0a16,16,0,0,0,16,16h98.74512a32,32,0,0,0,22.62744-9.37262l49.65687-49.65682a16.97055,16.97055,0,0,0,4.97057-12v-.00005c0-15.11914-18.27969-22.69084-28.97054-12Z"/><path class="cls-4" d="M184,200v32H168a16,16,0,0,1-16-16v0a16,16,0,0,1,16-16Z"/><path class="cls-14" d="M456,272v-8a32,32,0,0,0-32-32H424a32,32,0,0,0-32,32v8Z"/><path class="cls-10" d="M130.98,152a39.49007,39.49007,0,0,0-30.83667,14.82086v.00006a39.48548,39.48548,0,0,0-1.22,47.71741l17.22119-8.6106a31.99948,31.99948,0,0,0,16.04688-18.50238L144,152Z"/><polygon class="cls-11" points="106.667 274.667 80 344 136 344 146 314 106.667 274.667"/><path class="cls-6" d="M280,336v44a20,20,0,0,1-20,20H192.23385a16,16,0,0,1-13.01974-6.7002L149.148,351.20717A17.21065,17.21065,0,0,0,135.14307,344H76.57056a17.21074,17.21074,0,0,0-8.53894,2.26764l-37.5195,21.43979a17.50467,17.50467,0,0,0-7.33783,22.63718,17.2106,17.2106,0,0,0,25.04739,6.84094L63.96921,386.6872A16,16,0,0,1,72.84441,384h44.636a16,16,0,0,1,13.01975,6.70021l24.71388,34.59955A16.00008,16.00008,0,0,0,168.23389,432H376a16,16,0,0,1,32,0h40V392.24807a23.99908,23.99908,0,0,1,15.08643-22.28274l9.82648-3.9304A24.00012,24.00012,0,0,0,488,343.75122V336Z"/><circle class="cls-1" cx="392" cy="432" r="56"/><circle class="cls-3" cx="392" cy="432" r="16"/><path class="cls-15" d="M360,176.00012V288a16.00008,16.00008,0,0,0,16,16h96a15.97491,15.97491,0,0,0,4.11523-.55408A128.00764,128.00764,0,0,1,360,176.00012Z"/><path class="cls-2" d="M296,304h48a16.00008,16.00008,0,0,0,16-16V240.00006A64,64,0,0,1,296,304Z"/><path class="cls-16" d="M296,240h64V176.00006A64,64,0,0,1,296,240Z"/><path class="cls-16" d="M240,400h20a19.9999,19.9999,0,0,0,20-20V360A40.0001,40.0001,0,0,1,240,400Z"/><path class="cls-2" d="M369,483.05566a55.99435,55.99435,0,0,0,74.05566-74.05578A112.25219,112.25219,0,0,1,369,483.05566Z"/><path class="cls-17" d="M464,304H360a127.50469,127.50469,0,0,1,84.65332,32H488v-8A23.99994,23.99994,0,0,0,464,304Z"/><path class="cls-18" d="M470.32227,367.071l2.59082-1.03613A24.00025,24.00025,0,0,0,488,343.75122V336H444.65332A128.58093,128.58093,0,0,1,470.32227,367.071Z"/><path class="cls-19" d="M344,136V72H264v2.78827A104.20478,104.20478,0,0,1,336.01123,136Z"/><path class="cls-17" d="M80.0957,343.75122,80,344h56l8.84766-26.54272A110.77831,110.77831,0,0,1,80.0957,343.75122Z"/><path class="cls-20" d="M392.15771,260.82959C392.05469,261.8728,392,262.92993,392,264v8h11.35254A128.69377,128.69377,0,0,1,392.15771,260.82959Z"/><path class="cls-21" d="M334.70361,72,306.16309,95.784a104.61892,104.61892,0,0,1,11.58447,11.17328L344,85.08026V72Z"/><path class="cls-13" d="M360,32a27.31344,27.31344,0,0,0-19.31348-8h-73.373A27.31371,27.31371,0,0,0,240,51.31366V72h60.47949A27.52052,27.52052,0,0,1,328,99.52057v.00006c0,10.84491,8.43311,20.0813,19.271,20.46637A20.00032,20.00032,0,0,0,368,100V51.31366A27.31466,27.31466,0,0,0,360,32Z"/><rect class="cls-6" height="16" width="16" x="328" y="48"/><path class="cls-22" d="M328.14648,101.87048A20.23783,20.23783,0,0,0,347.271,119.987,20.00032,20.00032,0,0,0,368,100V51.31366a27.30557,27.30557,0,0,0-1.6748-9.40454A96.00913,96.00913,0,0,1,328.14648,101.87048Z"/><rect class="cls-13" height="16" width="32" x="224" y="64"/><path d="M96,408a24,24,0,1,0,24,24A24.02718,24.02718,0,0,0,96,408Zm0,32a8,8,0,1,1,8-8A8.00917,8.00917,0,0,1,96,440Z"/><path d="M472,152H376a23.84913,23.84913,0,0,0-12.21924,3.35492,40.04178,40.04178,0,0,0-7.49658-10.38373l-1.94043-1.9414A7.94677,7.94677,0,0,1,352,137.37256v-9.6535A28.015,28.015,0,0,0,376,100V51.31348A35.31326,35.31326,0,0,0,340.68652,16h-73.373A35.31326,35.31326,0,0,0,232,51.31348V64h-8V80h32V98.335a39.80889,39.80889,0,0,0,25.14453,37.13916l9.82715,3.93067A7.96187,7.96187,0,0,1,296,146.83252v9.85413L292.68652,160H200.44434a24.299,24.299,0,0,0-3.17383-6.0332A23.74549,23.74549,0,0,0,177.80078,144H130.97949a47.49039,47.49039,0,0,0-36.48242,77.89307l13.3418,16.01025a8.005,8.005,0,0,1,1.32129,7.99414L74.46753,336.09912a25.24524,25.24524,0,0,0-10.405,3.22266L26.167,360.97656a25.19167,25.19167,0,0,0,10.512,47.01172,63.99854,63.99854,0,1,0,122.99926,30.42456A23.95,23.95,0,0,0,168.2334,440H328.51758A63.9917,63.9917,0,0,0,456,432V392.249a15.92328,15.92328,0,0,1,10.05859-14.85595l9.8252-3.93067A31.84647,31.84647,0,0,0,496,343.751V328a31.8731,31.8731,0,0,0-8.50391-21.69434A23.951,23.951,0,0,0,496,288V176A24.02718,24.02718,0,0,0,472,152ZM256,64h-8V51.31348A19.31415,19.31415,0,0,1,267.31348,32h73.373A19.31415,19.31415,0,0,1,360,51.31348V100a11.99921,11.99921,0,0,1-12.44434,11.9917C341.18359,111.76562,336,106.1709,336,99.52051A35.56091,35.56091,0,0,0,300.47949,64Zm74.70654,57.97968-19.34131,19.34149a23.867,23.867,0,0,0-14.45214-16.77185l-.18653-.07459,23.73535-19.77942A28.41537,28.41537,0,0,0,330.70654,121.97968Zm-49.90869-5.05817A23.87508,23.87508,0,0,1,272,98.335V80h28.47949a19.48023,19.48023,0,0,1,15.45459,7.64142ZM200.43335,176H276.687l-8.97021,8.97021A23.84779,23.84779,0,0,1,250.74512,192H195.09985ZM192,208h58.74512a39.74371,39.74371,0,0,0,28.28515-11.71582l57.04785-57.0481a23.81232,23.81232,0,0,0,6.95118,15.10669l1.9414,1.9419A23.83889,23.83889,0,0,1,352,173.25488V232H304V219.31433l21.65723-21.65759-11.31446-11.31348-30.626,30.627A23.84779,23.84779,0,0,1,266.74512,224H192Zm10.707,184H192.2334a8.0177,8.0177,0,0,1-6.50977-3.3501L155.6582,346.55615a25.2081,25.2081,0,0,0-9.42163-7.96679L179.09961,240h87.64551A39.72789,39.72789,0,0,0,288,233.88867V256a8.00917,8.00917,0,0,1-8,8h-8a40.04552,40.04552,0,0,0-40,40v48h-4a27.991,27.991,0,0,0-25.293,40ZM168,224a8,8,0,0,1,0-16h8v16Zm60,144h44v12a12.01343,12.01343,0,0,1-12,12H228a12,12,0,0,1,0-24Zm20-16V304a24.0275,24.0275,0,0,1,24-24h8a24.0275,24.0275,0,0,0,24-24v-8h48v40a8.00917,8.00917,0,0,1-8,8H304a32.03635,32.03635,0,0,0-32,32v24ZM149.76636,160h28.03442a8.00042,8.00042,0,0,1,7.58984,10.52979L178.23364,192H168a23.99757,23.99757,0,0,0-5.54858,47.34546l-19.948,59.84412-26.50366-26.50379,8.094-21.04419a24.01916,24.01916,0,0,0-3.96289-23.981l-8.69531-10.43408,8.28711-4.14355a39.74094,39.74094,0,0,0,20.05859-23.12793Zm-47.65064,43.99774A31.45649,31.45649,0,0,1,130.97949,160h1.92066l-8.29859,24.89551a23.83944,23.83944,0,0,1-12.03515,13.87695Zm7.59864,85.03046,27.13232,27.13244L130.2334,336H91.64819ZM96,480a47.98382,47.98382,0,0,1-32.15063-83.61841l16.25219-10.83471A9.18641,9.18641,0,0,1,85.21094,384h25.93261a9.23149,9.23149,0,0,1,7.49512,3.85693L142.907,421.834A47.98281,47.98281,0,0,1,96,480Zm296,0a48,48,0,1,1,48-48A48.05405,48.05405,0,0,1,392,480Zm77.94141-121.39307-9.8252,3.93067a31.828,31.828,0,0,0-20.02588,27.302A63.943,63.943,0,0,0,328.51758,424H168.2334a8.0177,8.0177,0,0,1-6.50977-3.3501l-3.99292-5.59045-.01294-.05017-.019.00525L131.6582,378.55615A25.26325,25.26325,0,0,0,111.14355,368H85.21094a25.13081,25.13081,0,0,0-13.98438,4.23438L54.481,383.39819l-.05127-.05981c-.136.11633-.26221.24145-.39722.35876L43.78418,390.5293a9.21073,9.21073,0,0,1-13.34766-3.54492,9.21516,9.21516,0,0,1,3.668-12.11622L72,353.21387A9.22745,9.22745,0,0,1,76.57031,352h58.57324a9.23149,9.23149,0,0,1,7.49512,3.85693L172.7041,397.9502A24.04994,24.04994,0,0,0,192.2334,408H260a28.03146,28.03146,0,0,0,28-28V344h191.998A15.922,15.922,0,0,1,469.94141,358.60693ZM288,328a16.01833,16.01833,0,0,1,16-16H464a16.01833,16.01833,0,0,1,16,16Zm192-40a8.00917,8.00917,0,0,1-8,8H376a8.00917,8.00917,0,0,1-8-8V200H480Zm0-104H368v-8a8.00917,8.00917,0,0,1,8-8h96a8.00917,8.00917,0,0,1,8,8Z"/><rect height="16" width="64" x="400" y="112"/><rect height="16" width="64" x="416" y="80"/><rect height="16" width="48" x="448" y="48"/><path d="M392,408a24,24,0,1,0,24,24A24.02718,24.02718,0,0,0,392,408Zm0,32a8,8,0,1,1,8-8A8.00917,8.00917,0,0,1,392,440Z"/><rect height="16" width="16" x="328" y="48"/><path d="M464,264a40.068,40.068,0,0,0-32-39.19507V216H416v8.80493A40.068,40.068,0,0,0,384,264v16h80Zm-64,0a24,24,0,0,1,48,0Z"/></g></svg>