<svg id="Capa_1" enable-background="new 0 0 512 512" height="512" viewBox="0 0 512 512" width="512" xmlns="http://www.w3.org/2000/svg"><g><g><path clip-rule="evenodd" d="m256 332.543 42.316 75.404 95.146 52.187 44.302-194.03c11.535-23.567-55.312-64.803-67.928-39.221z" fill="#ffe596" fill-rule="evenodd"/></g><g><path clip-rule="evenodd" d="m74.207 266.104 44.302 194.03 110.303-44.711 27.188-82.88-113.836-105.659c-14.281-37.118-80.778 5.023-67.957 39.22z" fill="#ffe596" fill-rule="evenodd"/></g><g><path clip-rule="evenodd" d="m256 332.543-137.491 127.591 137.491 35.307 137.462-35.307z" fill="#fdd76f" fill-rule="evenodd"/></g><g><path clip-rule="evenodd" d="m35.453 146.632h22.604l10.864-19.333v-58.699h-33.468z" fill="#eff6ff" fill-rule="evenodd"/></g><g><path clip-rule="evenodd" d="m443.05 127.299 7.447 19.333h26.05v-78.032h-33.497z" fill="#eff6ff" fill-rule="evenodd"/></g><g><path clip-rule="evenodd" d="m428.915 64.862c0 7.797 6.366 14.164 14.135 14.164h33.497c7.768 0 14.135-6.366 14.135-14.164v-33.935h-61.766v33.935z" fill="#7e707d" fill-rule="evenodd"/></g><g><path clip-rule="evenodd" d="m33.818 204.017 48.449-1.957 26.283-41.206-21.348-36.972c-1.694-2.95-5.49-3.972-8.411-2.278l-9.871 5.695-33.467 19.333-20.735 11.974c-2.92 1.694-3.943 5.49-2.249 8.411z" fill="#7e707d" fill-rule="evenodd"/></g><g><path clip-rule="evenodd" d="m35.453 79.025h33.467c7.768 0 14.164-6.366 14.164-14.164v-33.934h-61.794v33.935c0 7.797 6.366 14.163 14.163 14.163z" fill="#7e707d" fill-rule="evenodd"/></g><g><path clip-rule="evenodd" d="m428.915 198.352 49.238 5.666 21.348-37.001c1.694-2.92.701-6.717-2.249-8.411l-20.705-11.974-33.497-19.333-9.842-5.695c-2.95-1.694-6.746-.672-8.44 2.278l-21.348 36.972z" fill="#7e707d" fill-rule="evenodd"/></g><g><path clip-rule="evenodd" d="m384.175 280.473c18.778 10.835 42.754 4.41 53.589-14.368l-25.203-39.221h-42.725c-10.834 18.749-4.41 42.754 14.339 53.589z" fill="#ffbc85" fill-rule="evenodd"/></g><g><path clip-rule="evenodd" d="m181.209 152.736 17.902 9.082 9.082 17.902c1.227 2.424 2.132 2.395 3.358 0l9.082-17.902 17.902-9.082c2.424-1.227 2.424-2.132 0-3.358l-17.902-9.082-9.082-17.902c-1.227-2.424-2.132-2.424-3.358 0l-9.082 17.902-17.902 9.082c-2.394 1.226-2.424 2.131 0 3.358z" fill="#fde588" fill-rule="evenodd"/></g><g><path clip-rule="evenodd" d="m74.207 266.104c10.835 18.778 34.811 25.203 53.589 14.368 18.749-10.835 25.203-34.84 14.368-53.589l-42.959 5.636z" fill="#ffbc85" fill-rule="evenodd"/></g><g><path clip-rule="evenodd" d="m21.29 41.352h61.795 345.831 61.766 16.15c2.833 0 5.169-2.307 5.169-5.14v-31.072c0-2.833-2.336-5.14-5.169-5.14h-501.692c-2.833 0-5.14 2.307-5.14 5.14v31.073c0 2.833 2.307 5.14 5.14 5.14h16.15z" fill="#eff6ff" fill-rule="evenodd"/></g><g><path clip-rule="evenodd" d="m68.512 134.658 21.377 37.001 18.661-10.805-21.348-36.972c-1.694-2.95-5.49-3.972-8.411-2.278l-9.871 5.695-8.79 5.081c2.921-1.664 6.688-.642 8.382 2.278z" fill="#6a5c6b" fill-rule="evenodd"/></g><g><path clip-rule="evenodd" d="m119.064 240.201c8.498 14.719 6.396 32.65-3.972 44.915 4.351-.759 8.644-2.307 12.704-4.643 18.749-10.835 25.203-34.84 14.368-53.589z" fill="#f5a96c" fill-rule="evenodd"/></g><g><path clip-rule="evenodd" d="m58.437 275.216 15.77-9.112 33.964-19.596 33.993-19.625 15.741-9.082c8.82-5.111 8.294-5.841 1.869-11.535l-51.223-45.412-37.352 21.582-37.381 21.582 13.726 67.052c1.723 8.41 2.073 9.228 10.893 4.146z" fill="#9fd4fe" fill-rule="evenodd"/></g><g><path clip-rule="evenodd" d="m89.889 171.66 51.194 45.412c6.337 5.607 6.951 6.396-1.548 11.331l.029-.029 2.599-1.489 15.741-9.082c8.82-5.111 8.294-5.841 1.869-11.535l-51.223-45.412z" fill="#85beef" fill-rule="evenodd"/></g><g><path clip-rule="evenodd" d="m49.938 79.025v59.254c6.337-3.65 12.645-7.301 18.982-10.981v-48.273h-18.894c-.029 0-.058 0-.088 0z" fill="#d9eeff" fill-rule="evenodd"/></g><g><path clip-rule="evenodd" d="m64.102 64.862c0 7.768-6.337 14.105-14.076 14.164h18.895c7.768 0 14.164-6.366 14.164-14.164v-23.51h-18.983z" fill="#6a5c6b" fill-rule="evenodd"/></g><g><path clip-rule="evenodd" d="m471.407 154.079-17.931 35.687 24.677 14.251 21.348-37.001c1.694-2.92.701-6.717-2.249-8.411l-20.705-11.974-6.104-3.504c5.111 2.95 2.482 7.915.964 10.952z" fill="#6a5c6b" fill-rule="evenodd"/></g><g><path clip-rule="evenodd" d="m373.72 271.682c2.862 3.446 6.366 6.425 10.455 8.79 18.778 10.835 42.754 4.41 53.589-14.368l-2.132-1.227-21.173-12.236c-8.469 14.69-24.969 21.816-40.739 19.041z" fill="#f5a96c" fill-rule="evenodd"/></g><g><path clip-rule="evenodd" d="m459.813 79.025v57.941l10.63 6.162 6.104 3.504v-67.607z" fill="#d9eeff" fill-rule="evenodd"/></g><g><path clip-rule="evenodd" d="m466.413 41.352v23.509c0 7.768-6.308 14.105-14.047 14.164h7.447 16.734c7.768 0 14.135-6.366 14.135-14.164v-23.509z" fill="#6a5c6b" fill-rule="evenodd"/></g><g><path clip-rule="evenodd" d="m470.531 5.14v31.073c0 2.833-2.307 5.14-5.14 5.14h1.022 24.268 16.15c2.833 0 5.169-2.307 5.169-5.14v-31.073c0-2.833-2.336-5.14-5.169-5.14h-41.44c2.833 0 5.14 2.307 5.14 5.14z" fill="#d9eeff" fill-rule="evenodd"/></g><g><path clip-rule="evenodd" d="m403.8 246.509 33.964 19.596 15.77 9.112c8.82 5.081 9.17 4.264 10.893-4.147l13.726-67.052-37.352-21.582-37.381-21.582-51.223 45.412c-6.396 5.695-6.951 6.425 1.869 11.535l15.77 9.082z" fill="#9fd4fe" fill-rule="evenodd"/></g><g><path clip-rule="evenodd" d="m453.476 189.766-13.697 67.052c-.409 1.957-1.11 5.344-2.015 9.287l2.161 1.256 13.609 7.856c8.82 5.081 9.17 4.264 10.893-4.147l13.726-67.052z" fill="#85beef" fill-rule="evenodd"/></g><g><path clip-rule="evenodd" d="m6.22 512h499.53c3.446 0 6.25-3.008 6.25-6.688v-38.491c0-3.68-2.804-6.688-6.25-6.688h-112.288-274.953-112.289c-3.417 0-6.22 3.008-6.22 6.688v38.491c0 3.68 2.804 6.688 6.22 6.688z" fill="#7e707d" fill-rule="evenodd"/></g><g><path clip-rule="evenodd" d="m470.531 466.822v38.491c0 3.68-2.804 6.688-6.22 6.688h41.44c3.446 0 6.25-3.008 6.25-6.688v-38.491c0-3.68-2.804-6.688-6.25-6.688h-41.44c3.416 0 6.22 3.008 6.22 6.688z" fill="#6a5c6b" fill-rule="evenodd"/></g><g><path clip-rule="evenodd" d="m284.415 109.426 17.902 9.082 9.082 17.902c1.227 2.424 2.132 2.424 3.358 0l9.082-17.902 17.902-9.053c2.395-1.227 2.424-2.132 0-3.358l-17.902-9.082-9.082-17.902c-1.227-2.424-2.132-2.424-3.358 0l-9.082 17.902-17.902 9.053c-2.424 1.227-2.424 2.132 0 3.358z" fill="#fde588" fill-rule="evenodd"/></g></g></svg>