<svg id="Layer_1" enable-background="new 0 0 512 512" height="512" viewBox="0 0 512 512" width="512" xmlns="http://www.w3.org/2000/svg"><g><circle cx="256" cy="256" fill="#ffe180" r="256"/><path d="m256 0c-5.19 0-10.339.173-15.453.478 134.188 7.991 240.548 119.327 240.548 255.522s-106.36 247.531-240.547 255.522c5.113.305 10.262.478 15.452.478 141.385 0 256-114.615 256-256s-114.615-256-256-256z" fill="#fbd270"/><circle cx="256" cy="256" fill="#fd9468" r="194.791"/><path d="m256 61.209c-5.201 0-10.354.209-15.453.609 100.356 7.877 179.339 91.803 179.339 194.182s-78.983 186.305-179.339 194.182c5.099.4 10.251.609 15.453.609 107.58 0 194.791-87.211 194.791-194.791s-87.211-194.791-194.791-194.791z" fill="#fe7d43"/><path d="m328.508 204.98h-.029l-14.682.027c-1.442.003-2.669-1.005-3.001-2.408-2.023-8.539-5.478-16.644-10.242-24.027-1.32-2.046.126-4.738 2.56-4.743l24.983-.046c8.395-.016 15.607-6.478 15.991-14.865.41-8.953-6.726-16.333-15.581-16.333h-.029l-92.57.172c-.33-.004-.658-.024-.989-.024h-.189l-51.275.121c-19.416.047-21.149 30.946.103 31.197l52.353-.097c12.105.251 23.454 5.062 32.054 13.643 3.882 3.873 6.998 8.308 9.276 13.121.958 2.024-.547 4.357-2.786 4.362l-90.993.169c-9.942.019-17.695 9.335-15.044 19.706 1.742 6.818 8.036 11.491 15.073 11.491h.029l90.922-.169c2.248-.004 3.756 2.339 2.795 4.372-7.486 15.827-23.588 26.829-42.211 26.873l-51.571.122c-13.978.032-20.81 17.938-10.344 27.241l113.817 101.48c2.974 2.652 6.681 3.956 10.376 3.956 4.292 0 8.566-1.762 11.648-5.218 5.733-6.43 5.168-16.291-1.262-22.023l-77.38-68.992c-2.103-1.875-.781-5.355 2.036-5.361l2.753-.007c36.78-.087 67.677-25.813 75.749-60.185.322-1.371 1.564-2.327 2.972-2.33l14.716-.027c9.943-.019 17.695-9.335 15.044-19.706-1.742-6.819-8.035-11.492-15.072-11.492z" fill="#fff"/><g><g><g><path d="m263.726.113v30.195c0 4.265-3.461 7.726-7.726 7.726s-7.726-3.461-7.726-7.726v-30.195c2.565-.072 5.14-.113 7.726-.113s5.161.041 7.726.113z" fill="#fd9468"/></g></g><g><g><path d="m199.587 45.452c-.67.185-1.35.268-2.009.268-3.41 0-6.531-2.277-7.459-5.728l-7.829-29.216c4.914-1.483 9.89-2.812 14.927-3.997l7.829 29.216c1.104 4.12-1.338 8.354-5.459 9.457z" fill="#fd9468"/></g></g><g><g><path d="m147.017 67.23c-1.216.7-2.545 1.04-3.863 1.04-2.668 0-5.264-1.391-6.696-3.863l-15.113-26.167c4.378-2.72 8.839-5.295 13.382-7.747l15.113 26.187c2.132 3.689.865 8.417-2.823 10.55z" fill="#fd9468"/></g></g><g><g><path d="m101.875 101.875c-1.514 1.504-3.492 2.256-5.47 2.256-1.968 0-3.946-.752-5.46-2.256l-21.346-21.346c3.533-3.75 7.18-7.397 10.93-10.93l21.345 21.345c3.019 3.019 3.019 7.912.001 10.931z" fill="#fd9468"/></g></g><g><g><path d="m67.23 147.017c-1.432 2.472-4.028 3.863-6.696 3.863-1.308 0-2.637-.34-3.853-1.04l-26.187-15.113c2.452-4.543 5.027-9.004 7.747-13.382l26.167 15.113c3.687 2.132 4.954 6.861 2.822 10.559z" fill="#fd9468"/></g></g><g><g><path d="m45.452 199.587c-.917 3.451-4.038 5.728-7.448 5.728-.67 0-1.339-.082-2.009-.268l-29.216-7.829c1.185-5.037 2.514-10.013 3.997-14.927l29.216 7.829c4.12 1.102 6.572 5.347 5.46 9.467z" fill="#fd9468"/></g></g><g><g><path d="m38.034 256c0 4.265-3.461 7.726-7.726 7.726h-30.195c-.072-2.565-.113-5.14-.113-7.726s.041-5.161.113-7.726h30.195c4.265 0 7.726 3.461 7.726 7.726z" fill="#fd9468"/></g></g><g><g><path d="m39.992 321.88-29.216 7.829c-1.483-4.914-2.812-9.89-3.997-14.927l29.216-7.829c4.121-1.102 8.355 1.339 9.457 5.46 1.112 4.12-1.34 8.365-5.46 9.467z" fill="#fd9468"/></g></g><g><g><path d="m64.407 375.542-26.167 15.113c-2.72-4.378-5.295-8.839-7.747-13.382l26.187-15.113c3.688-2.133 8.417-.876 10.549 2.823 2.133 3.698.866 8.427-2.822 10.559z" fill="#fd9468"/></g></g><g><g><path d="m101.875 421.056-21.345 21.345c-3.75-3.533-7.397-7.18-10.93-10.93l21.345-21.346c3.018-3.018 7.912-3.018 10.93 0 3.018 3.019 3.018 7.912 0 10.931z" fill="#fd9468"/></g></g><g><g><path d="m149.84 455.319-15.113 26.187c-4.543-2.452-9.004-5.027-13.382-7.747l15.113-26.167c2.133-3.688 6.861-4.955 10.559-2.823 3.688 2.134 4.955 6.862 2.823 10.55z" fill="#fd9468"/></g></g><g><g><path d="m205.047 476.006-7.829 29.216c-5.037-1.185-10.013-2.514-14.927-3.997l7.829-29.216c1.102-4.121 5.347-6.562 9.467-5.46 4.121 1.102 6.563 5.336 5.46 9.457z" fill="#fd9468"/></g></g><g><g><path d="m263.726 481.692v30.195c-2.565.072-5.14.113-7.726.113s-5.161-.041-7.726-.113v-30.195c0-4.265 3.461-7.726 7.726-7.726s7.726 3.461 7.726 7.726z" fill="#fd9468"/></g></g><g><g><path d="m329.71 501.224c-4.914 1.483-9.89 2.812-14.927 3.997l-7.829-29.216c-1.102-4.121 1.339-8.355 5.46-9.457s8.365 1.339 9.467 5.46z" fill="#fd9468"/></g></g><g><g><path d="m390.655 473.76c-4.378 2.72-8.839 5.295-13.382 7.747l-15.113-26.187c-2.133-3.688-.865-8.417 2.823-10.549 3.698-2.133 8.416-.865 10.559 2.823z" fill="#fd9468"/></g></g><g><g><path d="m442.401 431.471c-3.533 3.75-7.18 7.397-10.93 10.93l-21.345-21.345c-3.018-3.018-3.018-7.912 0-10.93s7.912-3.018 10.93 0z" fill="#fd9468"/></g></g><g><g><path d="m481.507 377.273c-2.452 4.543-5.027 9.004-7.747 13.382l-26.167-15.113c-3.688-2.133-4.955-6.861-2.823-10.559 2.133-3.688 6.851-4.955 10.549-2.823z" fill="#fd9468"/></g></g><g><g><path d="m505.221 314.782c-1.185 5.037-2.514 10.013-3.997 14.927l-29.216-7.829c-4.121-1.102-6.572-5.347-5.46-9.467 1.102-4.121 5.336-6.562 9.457-5.46z" fill="#fd9468"/></g></g><g><g><path d="m512 256c0 2.586-.041 5.161-.113 7.726h-30.195c-4.265 0-7.726-3.461-7.726-7.726s3.461-7.726 7.726-7.726h30.195c.072 2.565.113 5.14.113 7.726z" fill="#fd9468"/></g></g><g><g><path d="m505.221 197.218-29.216 7.829c-.67.185-1.339.268-2.009.268-3.41 0-6.531-2.277-7.448-5.728-1.113-4.121 1.339-8.365 5.46-9.467l29.216-7.829c1.484 4.913 2.813 9.889 3.997 14.927z" fill="#fd9468"/></g></g><g><g><path d="m481.507 134.727-26.187 15.113c-1.216.7-2.545 1.04-3.853 1.04-2.668 0-5.264-1.391-6.696-3.863-2.133-3.698-.865-8.427 2.823-10.559l26.167-15.113c2.718 4.378 5.294 8.839 7.746 13.382z" fill="#fd9468"/></g></g><g><g><path d="m442.401 80.529-21.345 21.346c-1.514 1.504-3.492 2.256-5.46 2.256-1.978 0-3.956-.752-5.47-2.256-3.018-3.019-3.018-7.912 0-10.93l21.345-21.345c3.75 3.533 7.396 7.179 10.93 10.929z" fill="#fd9468"/></g></g><g><g><path d="m390.655 38.24-15.113 26.167c-1.432 2.472-4.028 3.863-6.696 3.863-1.319 0-2.648-.34-3.863-1.04-3.688-2.133-4.955-6.861-2.823-10.549l15.113-26.187c4.543 2.451 9.004 5.027 13.382 7.746z" fill="#fd9468"/></g></g><g><g><path d="m329.71 10.776-7.829 29.216c-.927 3.451-4.049 5.728-7.458 5.728-.659 0-1.339-.082-2.009-.268-4.121-1.102-6.562-5.337-5.46-9.457l7.829-29.216c5.037 1.184 10.013 2.513 14.927 3.997z" fill="#fd9468"/></g></g></g></g></svg>