<svg height="512" viewBox="0 0 64 64" width="512" xmlns="http://www.w3.org/2000/svg"><g id="people-coronavirus-covid19-tempurature-scan"><path d="m52 53 3.66-2.44a11.98 11.98 0 0 0 5.34-9.98v-15.58a14 14 0 0 0 -14-14h-22v2a8 8 0 0 0 8 8h11a6 6 0 0 1 6 6v6h2z" fill="#58595b"/><path d="m47 11h-2a14 14 0 0 1 14 14v15.58a11.98 11.98 0 0 1 -5.34 9.98l-1.66 1.107v1.333l3.66-2.44a11.98 11.98 0 0 0 5.34-9.98v-15.58a14 14 0 0 0 -14-14z" fill="#4f5052"/><path d="m55 33h-5v-6a6 6 0 0 0 -6-6h-11a4 4 0 0 0 -4 4v4l-3.55 7h-2.45l2 18h6a9.908 9.908 0 0 0 3-.46v7.46h18v-18h1a4 4 0 0 0 4-4v-4a2.006 2.006 0 0 0 -2-2z" fill="#ffa791"/><path d="m48 27v6h2v-6a6 6 0 0 0 -6-6h-2a6 6 0 0 1 6 6z" fill="#ff9478"/><path d="m55 33h-2a2.006 2.006 0 0 1 2 2v4a4 4 0 0 1 -4 4 1 1 0 0 0 -1 1v17h2v-18h1a4 4 0 0 0 4-4v-4a2.006 2.006 0 0 0 -2-2z" fill="#ff9478"/><circle cx="53" cy="11" fill="#009444" r="8"/><path d="m53 3a8.056 8.056 0 0 0 -1.5.145 8 8 0 0 1 0 15.71 8 8 0 1 0 1.5-15.855z" fill="#00853d"/><path d="m17 17a4 4 0 0 1 -4.98 3.88 3.951 3.951 0 0 1 -2.9-2.87 3.992 3.992 0 0 1 1.88-4.47v-8.54a2 2 0 0 1 4 0v8.54a3.98 3.98 0 0 1 2 3.46z" fill="#ff5023"/><path d="m7 47h4v-4l2-12h3 2v-6h-11l-3 18z" fill="#006df0"/><path d="m12.167 36h3.833v-5h-3z" fill="#cd2a00"/><path d="m4 25-1 7h2.833l1.167-7z" fill="#004fac"/><path d="m18 25h4v6h-4z" fill="#00479b"/><path d="m39.536 29.878.171-.171a1 1 0 0 0 -1.414-1.414l-.171.171a3 3 0 0 1 -4.244 0l-.171-.171a1 1 0 0 0 -1.414 1.414l.171.171a5 5 0 0 0 7.072 0z" fill="#58595b"/><circle cx="13" cy="17" fill="#ed1c24" r="2"/><path d="m51.172 14.828a1 1 0 0 0 1.414 0l5.657-5.657a1 1 0 1 0 -1.414-1.414l-4.95 4.95-2.122-2.121a1 1 0 1 0 -1.414 1.414z" fill="#f1f2f2"/><g fill="#ed1c24"><path d="m14 11h1a0 0 0 0 1 0 0v2a0 0 0 0 1 0 0h-1a1 1 0 0 1 -1-1 1 1 0 0 1 1-1z"/><path d="m14 8h1a0 0 0 0 1 0 0v2a0 0 0 0 1 0 0h-1a1 1 0 0 1 -1-1 1 1 0 0 1 1-1z"/><path d="m14 5h1a0 0 0 0 1 0 0v2a0 0 0 0 1 0 0h-1a1 1 0 0 1 -1-1 1 1 0 0 1 1-1z"/></g><path d="m35.381 38.925 14.619-6.02v-2.163l-15.381 6.333z" fill="#f1f2f2"/><path d="m35.428 51.904 16.572-6.904v-2l-17.428 7.096z" fill="#f1f2f2"/><path d="m25 54h6a10 10 0 0 0 10-10 8 8 0 0 0 -8-8h-10z" fill="#57a4ff"/><path d="m35.081 36.283a7.964 7.964 0 0 1 .919 3.717 10 10 0 0 1 -10 10h-1.444l.444 4h6a10 10 0 0 0 10-10 8 8 0 0 0 -5.919-7.717z" fill="#2488ff"/></g></svg>