<svg height="512pt" viewBox="0 0 512 512" width="512pt" xmlns="http://www.w3.org/2000/svg"><path d="m512 256c0 141.386719-114.613281 256-256 256s-256-114.613281-256-256 114.613281-256 256-256 256 114.613281 256 256zm0 0" fill="#0c99e6"/><path d="m326.589844 9.863281c-18.152344 17.957031-43.097656 29.066407-70.589844 29.066407s-52.4375-11.109376-70.589844-29.066407c-5.34375 1.527344-10.609375 3.234375-15.804687 5.097657 21.164062 23.882812 52.046875 38.96875 86.394531 38.96875s65.230469-15.085938 86.394531-38.96875c-5.195312-1.863282-10.460937-3.570313-15.804687-5.097657zm0 0" fill="#fff"/><path d="m267.332031 109h-22.667969c-2.023437 0-3.664062-1.640625-3.664062-3.667969v-70.664062c0-2.027344 1.640625-3.667969 3.664062-3.667969h22.667969c2.027344 0 3.667969 1.640625 3.667969 3.667969v70.667969c0 2.023437-1.640625 3.664062-3.667969 3.664062zm0 0" fill="#ffcf11"/><path d="m125.683594 512c-13.621094 0-24.664063-11.042969-24.664063-24.664062v-376.625c0-13.621094 11.042969-24.664063 24.664063-24.664063h260.632812c13.625 0 24.664063 11.042969 24.664063 24.664063v376.625c0 13.621093-11.039063 24.664062-24.660157 24.664062zm0 0" fill="#ebf0f3"/><path d="m139.464844 487.335938v-376.625c0-13.621094 11.042968-24.664063 24.664062-24.664063h-38.445312c-13.625 0-24.664063 11.042969-24.664063 24.664063v376.625c0 13.621093 11.042969 24.664062 24.664063 24.664062h38.445312c-13.621094 0-24.664062-11.042969-24.664062-24.664062zm0 0" fill="#c7d9ff"/><path d="m380.628906 100.464844h-249.257812c-8.800782 0-15.933594 7.132812-15.933594 15.933594v130.300781c0 77.632812 62.929688 140.566406 140.5625 140.566406s140.566406-62.933594 140.566406-140.566406v-130.300781c0-8.800782-7.136718-15.933594-15.9375-15.933594zm0 0" fill="#3e4a68"/><path d="m153.878906 246.699219v-130.300781c0-8.800782 7.136719-15.933594 15.9375-15.933594h-38.445312c-8.800782 0-15.9375 7.136718-15.9375 15.933594v130.300781c0 77.632812 62.933594 140.566406 140.566406 140.566406 6.523438 0 12.9375-.453125 19.222656-1.3125-68.535156-9.375-121.34375-68.140625-121.34375-139.253906zm0 0" fill="#303a59"/><path d="m320.898438 265.148438c.324218.015624.648437.050781.976562.050781 12.179688 0 22.054688-9.875 22.054688-22.054688 0-9.53125-6.0625-17.628906-14.53125-20.707031.019531-.007812.039062-.011719.039062-.011719v-5.992187c0-40.492188-32.945312-73.4375-73.4375-73.4375s-73.4375 32.945312-73.4375 73.4375v5.992187h.070312c-8.488281 3.070313-14.5625 11.175781-14.5625 20.71875 0 12.179688 9.875 22.054688 22.054688 22.054688.328125 0 .652344-.035157.976562-.050781 3.832032 22.230468 18.789063 40.648437 38.949219 49.296874v12.449219h-31.40625c-16.410156 0-30.8125 9.234375-38.074219 22.980469 25.066407 23.195312 58.585938 37.390625 95.429688 37.390625s70.363281-14.195313 95.429688-37.390625c-7.261719-13.746094-21.664063-22.980469-38.074219-22.980469h-31.40625v-12.449219c20.160156-8.648437 35.117187-27.066406 38.949219-49.296874zm0 0" fill="#ebf0f3"/><path d="m351.429688 430.492188h-190.859376c-4.140624 0-7.5-3.359376-7.5-7.5 0-4.144532 3.359376-7.5 7.5-7.5h190.859376c4.140624 0 7.5 3.355468 7.5 7.5 0 4.140624-3.359376 7.5-7.5 7.5zm0 0" fill="#b5ccf4"/><path d="m322.316406 464.128906h-132.632812c-4.144532 0-7.5-3.355468-7.5-7.5 0-4.140625 3.355468-7.5 7.5-7.5h132.632812c4.144532 0 7.5 3.359375 7.5 7.5 0 4.144532-3.355468 7.5-7.5 7.5zm0 0" fill="#b5ccf4"/><path d="m181.542969 330.445312c-8.96875 3.894532-16.394531 10.761719-20.972657 19.429688 25.066407 23.195312 58.585938 37.390625 95.429688 37.390625 6.523438 0 12.9375-.453125 19.222656-1.3125-38.292968-5.238281-71.675781-25.890625-93.679687-55.507813zm0 0" fill="#c7d9ff"/><path d="m299.332031 114.632812h-86.660156c-3.496094 0-6.328125-2.835937-6.328125-6.328124v-33.160157c0-3.496093 2.832031-6.328125 6.328125-6.328125h86.660156c3.492188 0 6.324219 2.835938 6.324219 6.328125v33.160157c0 3.492187-2.832031 6.328124-6.324219 6.328124zm0 0" fill="#ffe854"/><path d="m246.34375 108.304688v-33.160157c0-3.496093 2.832031-6.328125 6.324219-6.328125h-40c-3.492188 0-6.324219 2.835938-6.324219 6.328125v33.160157c0 3.496093 2.832031 6.328124 6.324219 6.328124h40c-3.492188 0-6.324219-2.835937-6.324219-6.328124zm0 0" fill="#ffcf11"/></svg>