<svg xmlns="http://www.w3.org/2000/svg" height="512pt" version="1.1" viewBox="0 0 512 512" width="512pt">
<g id="surface1">
<path d="M 512 256 C 512 397.386719 397.386719 512 256 512 C 114.613281 512 0 397.386719 0 256 C 0 114.613281 114.613281 0 256 0 C 397.386719 0 512 114.613281 512 256 Z M 512 256 " style=" stroke:none;fill-rule:nonzero;fill:rgb(100%,83.137255%,0%);fill-opacity:1;"/>
<path d="M 307.988281 506.714844 C 424.445312 482.691406 512 379.570312 512 256 C 512 249.039062 511.710938 242.148438 511.167969 235.328125 L 436.574219 160.734375 L 75.425781 211.730469 L 176.988281 313.292969 L 135.367188 334.09375 Z M 307.988281 506.714844 " style=" stroke:none;fill-rule:nonzero;fill:rgb(99.215686%,72.941176%,7.058824%);fill-opacity:1;"/>
<path d="M 376.632812 334.09375 L 256 354.09375 L 135.367188 334.09375 L 135.367188 195.667969 L 376.632812 195.667969 Z M 376.632812 334.09375 " style=" stroke:none;fill-rule:nonzero;fill:rgb(33.333333%,35.294118%,40%);fill-opacity:1;"/>
<path d="M 256 354.09375 L 376.632812 334.09375 L 376.632812 195.667969 L 255.761719 195.667969 Z M 256 354.09375 " style=" stroke:none;fill-rule:nonzero;fill:rgb(25.490196%,28.627451%,32.156863%);fill-opacity:1;"/>
<path d="M 411 195.667969 L 424 195.667969 L 424 335 L 411 335 Z M 411 195.667969 " style=" stroke:none;fill-rule:nonzero;fill:rgb(33.333333%,35.294118%,40%);fill-opacity:1;"/>
<path d="M 417.070312 195.667969 L 424 195.667969 L 424 335 L 417.070312 335 Z M 417.070312 195.667969 " style=" stroke:none;fill-rule:nonzero;fill:rgb(25.490196%,28.627451%,32.156863%);fill-opacity:1;"/>
<path d="M 436.75 379 L 398.25 379 L 406.730469 328.125 C 407.605469 322.859375 412.160156 319 417.5 319 C 422.839844 319 427.394531 322.859375 428.269531 328.125 Z M 436.75 379 " style=" stroke:none;fill-rule:nonzero;fill:rgb(98.039216%,36.470588%,5.882353%);fill-opacity:1;"/>
<path d="M 428.269531 328.125 C 427.394531 322.859375 422.839844 319 417.5 319 C 417.355469 319 417.214844 319.015625 417.070312 319.019531 L 417.070312 379 L 436.75 379 Z M 428.269531 328.125 " style=" stroke:none;fill-rule:nonzero;fill:rgb(93.72549%,21.960784%,0%);fill-opacity:1;"/>
<path d="M 75.425781 160.734375 L 436.570312 160.734375 L 436.570312 211.730469 L 75.425781 211.730469 Z M 75.425781 160.734375 " style=" stroke:none;fill-rule:nonzero;fill:rgb(25.490196%,28.627451%,32.156863%);fill-opacity:1;"/>
<path d="M 255.761719 160.734375 L 436.574219 160.734375 L 436.574219 211.730469 L 255.761719 211.730469 Z M 255.761719 160.734375 " style=" stroke:none;fill-rule:nonzero;fill:rgb(13.72549%,15.294118%,16.862745%);fill-opacity:1;"/>
</g>
</svg>