<svg xmlns="http://www.w3.org/2000/svg" xmlns:xlink="http://www.w3.org/1999/xlink" width="775" height="775" viewBox="0 0 775 775">
  <defs>
    <linearGradient id="linear-gradient" x1="0.5" x2="0.5" y2="1" gradientUnits="objectBoundingBox">
      <stop offset="0" stop-color="#e8e8e8"/>
      <stop offset="0.522" stop-color="#fff"/>
      <stop offset="1" stop-color="#ddd"/>
    </linearGradient>
    <filter id="Ellipse_1" x="0" y="0" width="775" height="775" filterUnits="userSpaceOnUse">
      <feOffset dx="8" dy="22" input="SourceAlpha"/>
      <feGaussianBlur stdDeviation="16" result="blur"/>
      <feFlood flood-opacity="0.169"/>
      <feComposite operator="in" in2="blur"/>
      <feComposite in="SourceGraphic"/>
    </filter>
    <radialGradient id="radial-gradient" cx="0.5" cy="0.5" r="0.5" gradientUnits="objectBoundingBox">
      <stop offset="0" stop-color="#fff"/>
      <stop offset="1" stop-color="#f4f4f4"/>
    </radialGradient>
    <filter id="Path_109" x="332" y="21" width="26.131" height="194" filterUnits="userSpaceOnUse">
      <feOffset dx="-4" dy="4" input="SourceAlpha"/>
      <feGaussianBlur stdDeviation="3" result="blur-2"/>
      <feFlood flood-opacity="0.588"/>
      <feComposite operator="in" in2="blur-2"/>
      <feComposite in="SourceGraphic"/>
    </filter>
    <filter id="Path_108" x="407" y="21" width="26.131" height="194" filterUnits="userSpaceOnUse">
      <feOffset dx="2" dy="4" input="SourceAlpha"/>
      <feGaussianBlur stdDeviation="3" result="blur-3"/>
      <feFlood flood-opacity="0.588"/>
      <feComposite operator="in" in2="blur-3"/>
      <feComposite in="SourceGraphic"/>
    </filter>
    <clipPath id="clip-path">
      <rect width="23" height="179" fill="none"/>
    </clipPath>
    <linearGradient id="linear-gradient-2" x1="0.5" x2="0.5" y2="1" gradientUnits="objectBoundingBox">
      <stop offset="0" stop-color="#0b71a7"/>
      <stop offset="1" stop-color="#0d94db"/>
    </linearGradient>
    <linearGradient id="linear-gradient-3" y1="1" y2="0" xlink:href="#linear-gradient-2"/>
    <linearGradient id="linear-gradient-6" x1="0.5" x2="0.5" y2="1" gradientUnits="objectBoundingBox">
      <stop offset="0" stop-color="#0d94db"/>
      <stop offset="0.547" stop-color="#77d0ff"/>
      <stop offset="1" stop-color="#0d94db"/>
    </linearGradient>
  </defs>
  <g id="Component_10_1" data-name="Component 10 – 1" transform="translate(40 26)">
    <g transform="matrix(1, 0, 0, 1, -40, -26)" filter="url(#Ellipse_1)">
      <g id="Ellipse_1-2" data-name="Ellipse 1" transform="translate(40 26)" stroke="#c7c7c7" stroke-width="3" fill="url(#linear-gradient)">
        <circle cx="339.5" cy="339.5" r="339.5" stroke="none"/>
        <circle cx="339.5" cy="339.5" r="338" fill="none"/>
      </g>
    </g>
    <g id="Ellipse_2" data-name="Ellipse 2" transform="translate(87 87)" fill="none" stroke="#7cbe37" stroke-width="8">
      <circle cx="252.5" cy="252.5" r="252.5" stroke="none"/>
      <circle cx="252.5" cy="252.5" r="248.5" fill="none"/>
    </g>
    <g id="Ellipse_3" data-name="Ellipse 3" transform="translate(247 247)" stroke="#f0eadc" stroke-width="3" fill="url(#radial-gradient)">
      <circle cx="92.5" cy="92.5" r="92.5" stroke="none"/>
      <circle cx="92.5" cy="92.5" r="91" fill="none"/>
    </g>
    <g id="Rectangle_1" data-name="Rectangle 1" transform="translate(339.5 195.957) rotate(45)" fill="none" stroke="#e3dcc5" stroke-width="3">
      <rect width="203" height="203" rx="6" stroke="none"/>
      <rect x="1.5" y="1.5" width="200" height="200" rx="4.5" fill="none"/>
    </g>
    <line id="Line_1" data-name="Line 1" x2="106" transform="translate(478.5 339.5)" fill="none" stroke="#e3dcc5" stroke-width="3"/>
    <g transform="matrix(1, 0, 0, 1, -40, -26)" filter="url(#Path_109)">
      <path id="Path_109-2" data-name="Path 109" d="M8.131,0V176S0,131.351,0,87.351,8.131,0,8.131,0Z" transform="translate(345 26)" fill="#898989"/>
    </g>
    <g transform="matrix(1, 0, 0, 1, -40, -26)" filter="url(#Path_108)">
      <path id="Path_108-2" data-name="Path 108" d="M0,0V176s8.131-44.649,8.131-88.649S0,0,0,0Z" transform="translate(414 26)" fill="#898989"/>
    </g>
    <rect id="Rectangle_2" data-name="Rectangle 2" width="74" height="679" transform="translate(306)" fill="#0d94db"/>
    <circle id="Ellipse_4" data-name="Ellipse 4" cx="89" cy="89" r="89" transform="translate(254 204)" fill="#0d94db"/>
    <g id="Repeat_Grid_1" data-name="Repeat Grid 1" transform="translate(331 483)" clip-path="url(#clip-path)">
      <g transform="translate(-1397 -734)">
        <g id="Rectangle_6" data-name="Rectangle 6" transform="translate(1397 734)" fill="#fff" stroke="#1275a8" stroke-width="2">
          <rect width="23" height="12" rx="6" stroke="none"/>
          <rect x="1" y="1" width="21" height="10" rx="5" fill="none"/>
        </g>
      </g>
      <g transform="translate(-1397 -702)">
        <g id="Rectangle_6-2" data-name="Rectangle 6" transform="translate(1397 734)" fill="#fff" stroke="#1275a8" stroke-width="2">
          <rect width="23" height="12" rx="6" stroke="none"/>
          <rect x="1" y="1" width="21" height="10" rx="5" fill="none"/>
        </g>
      </g>
      <g transform="translate(-1397 -670)">
        <g id="Rectangle_6-3" data-name="Rectangle 6" transform="translate(1397 734)" fill="#fff" stroke="#1275a8" stroke-width="2">
          <rect width="23" height="12" rx="6" stroke="none"/>
          <rect x="1" y="1" width="21" height="10" rx="5" fill="none"/>
        </g>
      </g>
      <g transform="translate(-1397 -638)">
        <g id="Rectangle_6-4" data-name="Rectangle 6" transform="translate(1397 734)" fill="#fff" stroke="#1275a8" stroke-width="2">
          <rect width="23" height="12" rx="6" stroke="none"/>
          <rect x="1" y="1" width="21" height="10" rx="5" fill="none"/>
        </g>
      </g>
      <g transform="translate(-1397 -606)">
        <g id="Rectangle_6-5" data-name="Rectangle 6" transform="translate(1397 734)" fill="#fff" stroke="#1275a8" stroke-width="2">
          <rect width="23" height="12" rx="6" stroke="none"/>
          <rect x="1" y="1" width="21" height="10" rx="5" fill="none"/>
        </g>
      </g>
      <g transform="translate(-1397 -574)">
        <g id="Rectangle_6-6" data-name="Rectangle 6" transform="translate(1397 734)" fill="#fff" stroke="#1275a8" stroke-width="2">
          <rect width="23" height="12" rx="6" stroke="none"/>
          <rect x="1" y="1" width="21" height="10" rx="5" fill="none"/>
        </g>
      </g>
    </g>
    <path id="Union_1" data-name="Union 1" d="M149.722-22.47c.122-.24-26.97,46.62-81.6,46.62.248-.088-.125,95.8-.125,95.8h37.1V84.492s-.23-18.788,0-28.582C105.852,24,132.894,24.892,149.722-22.47Z" transform="translate(274.739 352.052)" fill="url(#linear-gradient-2)"/>
    <path id="Union_2" data-name="Union 2" d="M81.722,142.418c.122.24-26.97-46.62-81.6-46.62C.373,95.886,0,0,0,0H37.1V35.456s-.23,18.788,0,28.582C37.852,95.95,64.894,95.056,81.722,142.418Z" transform="translate(343.462 472) rotate(180)" fill="url(#linear-gradient-3)"/>
    <g id="Group_1" data-name="Group 1" transform="translate(261.739 114.581)">
      <path id="Union_3" data-name="Union 3" d="M81.722,142.418c.122.24-26.97-46.62-81.6-46.62C.373,95.886,0,0,0,0H37.1V35.456s-.23,18.788,0,28.582C37.852,95.95,64.894,95.056,81.722,142.418Z" transform="translate(81 0)" fill="url(#linear-gradient-3)"/>
      <path id="Union_4" data-name="Union 4" d="M81.722,0c.122-.24-26.97,46.62-81.6,46.62.248-.088-.125,95.8-.125,95.8H37.1V106.963s-.23-18.788,0-28.582C37.852,46.469,64.894,47.363,81.722,0Z" transform="translate(81.723 142.419) rotate(180)" fill="url(#linear-gradient-2)"/>
    </g>
    <g id="_806751" data-name="806751" transform="translate(307 236)">
      <g id="Group_3" data-name="Group 3">
        <g id="Group_2" data-name="Group 2">
          <path id="Path_8" data-name="Path 8" d="M31.842,0H2.113A2.113,2.113,0,0,0,0,2.113V31.842a2.113,2.113,0,0,0,2.113,2.113H31.842a2.113,2.113,0,0,0,2.113-2.113V2.113A2.113,2.113,0,0,0,31.842,0ZM29.729,29.729H4.227V4.227h25.5Z"/>
        </g>
      </g>
      <g id="Group_5" data-name="Group 5" transform="translate(38.182)">
        <g id="Group_4" data-name="Group 4">
          <path id="Path_9" data-name="Path 9" d="M302.842,0H273.113A2.113,2.113,0,0,0,271,2.113V31.842a2.113,2.113,0,0,0,2.113,2.113h29.729a2.113,2.113,0,0,0,2.113-2.113V2.113A2.113,2.113,0,0,0,302.842,0Zm-2.113,29.729h-25.5V4.227h25.5Z" transform="translate(-271)"/>
        </g>
      </g>
      <g id="Group_7" data-name="Group 7" transform="translate(46.636 8.595)">
        <g id="Group_6" data-name="Group 6">
          <path id="Path_10" data-name="Path 10" d="M345.794,61h-12.68A2.113,2.113,0,0,0,331,63.113v12.68a2.113,2.113,0,0,0,2.113,2.113h12.68a2.113,2.113,0,0,0,2.113-2.113V63.113A2.113,2.113,0,0,0,345.794,61ZM343.68,73.68h-8.454V65.227h8.454Z" transform="translate(-331 -61)"/>
        </g>
      </g>
      <g id="Group_9" data-name="Group 9" transform="translate(8.595 8.595)">
        <g id="Group_8" data-name="Group 8">
          <path id="Path_11" data-name="Path 11" d="M75.794,61H63.113A2.113,2.113,0,0,0,61,63.113v12.68a2.113,2.113,0,0,0,2.113,2.113h12.68a2.113,2.113,0,0,0,2.113-2.113V63.113A2.113,2.113,0,0,0,75.794,61ZM73.68,73.68H65.227V65.227H73.68Z" transform="translate(-61 -61)"/>
        </g>
      </g>
      <g id="Group_11" data-name="Group 11" transform="translate(8.595 46.636)">
        <g id="Group_10" data-name="Group 10">
          <path id="Path_12" data-name="Path 12" d="M75.794,331H63.113A2.113,2.113,0,0,0,61,333.113v12.68a2.113,2.113,0,0,0,2.113,2.113h12.68a2.113,2.113,0,0,0,2.113-2.113v-12.68A2.113,2.113,0,0,0,75.794,331ZM73.68,343.68H65.227v-8.454H73.68Z" transform="translate(-61 -331)"/>
        </g>
      </g>
      <g id="Group_13" data-name="Group 13" transform="translate(0 38.182)">
        <g id="Group_12" data-name="Group 12">
          <path id="Path_13" data-name="Path 13" d="M31.842,271H2.113A2.113,2.113,0,0,0,0,273.113v29.729a2.113,2.113,0,0,0,2.113,2.113H31.842a2.113,2.113,0,0,0,2.113-2.113V273.113A2.113,2.113,0,0,0,31.842,271Zm-2.113,29.729H4.227v-25.5h25.5Z" transform="translate(0 -271)"/>
        </g>
      </g>
      <g id="Group_15" data-name="Group 15" transform="translate(38.182 50.863)">
        <g id="Group_14" data-name="Group 14">
          <path id="Path_14" data-name="Path 14" d="M302.842,361a2.113,2.113,0,0,0-2.113,2.113v6.34H290.021a2.113,2.113,0,0,0-2.113,2.113v6.481h-12.68v-6.481a2.113,2.113,0,0,0-4.227,0v8.595a2.113,2.113,0,0,0,2.113,2.113h16.907a2.113,2.113,0,0,0,2.113-2.113V373.68h10.708a2.113,2.113,0,0,0,2.113-2.113v-8.454A2.113,2.113,0,0,0,302.842,361Z" transform="translate(-271 -361)"/>
        </g>
      </g>
      <g id="Group_17" data-name="Group 17" transform="translate(38.182 38.182)">
        <g id="Group_16" data-name="Group 16">
          <path id="Path_15" data-name="Path 15" d="M285.794,271h-12.68A2.113,2.113,0,0,0,271,273.113v12.68a2.113,2.113,0,0,0,4.227,0V275.227h8.454v2.113a2.113,2.113,0,0,0,4.227,0v-4.227A2.113,2.113,0,0,0,285.794,271Z" transform="translate(-271 -271)"/>
        </g>
      </g>
      <g id="Group_19" data-name="Group 19" transform="translate(46.636 38.182)">
        <g id="Group_18" data-name="Group 18">
          <path id="Path_16" data-name="Path 16" d="M354.389,271h-8.595a2.113,2.113,0,0,0-2.113,2.113v10.6H333.114A2.089,2.089,0,0,0,331,285.793h0v8.454a2.113,2.113,0,0,0,4.227,0v-6.341h10.567a2.113,2.113,0,0,0,2.114-2.113V275.227h6.481a2.113,2.113,0,1,0,0-4.227Z" transform="translate(-331.001 -271)"/>
        </g>
      </g>
      <g id="Group_21" data-name="Group 21" transform="translate(63.543 67.911)">
        <g id="Group_20" data-name="Group 20">
          <path id="Path_17" data-name="Path 17" d="M457.481,482h-4.368a2.113,2.113,0,0,0,0,4.227h4.368a2.113,2.113,0,0,0,0-4.227Z" transform="translate(-451 -482)"/>
        </g>
      </g>
    </g>
    <text id="_7689097890" data-name="7689097890" transform="translate(307 327)" font-size="13" font-family="HelveticaNeue, Helvetica Neue"><tspan x="0" y="0">7689097890</tspan></text>
    <text id="_8909" data-name="8909" transform="translate(323 358)" font-size="18" font-family="HelveticaNeue-Bold, Helvetica Neue" font-weight="700"><tspan x="0" y="0">8909</tspan></text>
    <rect id="Rectangle_40" data-name="Rectangle 40" width="74" height="35" transform="translate(306)" fill="url(#linear-gradient-6)"/>
  </g>
</svg>
