<?xml version="1.0" encoding="iso-8859-1"?>
<!-- Generator: Adobe Illustrator 19.0.0, SVG Export Plug-In . SVG Version: 6.00 Build 0)  -->
<svg version="1.1" id="Capa_1" xmlns="http://www.w3.org/2000/svg" xmlns:xlink="http://www.w3.org/1999/xlink" x="0px" y="0px"
	 viewBox="0 0 512 512" style="enable-background:new 0 0 512 512;" xml:space="preserve">
<circle style="fill:#F1333F;" cx="256" cy="256" r="256"/>
<path style="fill:#AE283F;" d="M512,256c0-6.258-0.236-12.46-0.677-18.605L390.622,116.694l-70.385,70.66l-53.51,4.135
	l-35.898-35.892L119.827,250l40.477,40.477l-54.638,109.856l108.195,108.195C227.573,510.799,241.645,512,256,512
	C397.385,512,512,397.385,512,256z"/>
<rect x="105.67" y="288.58" style="fill:#FFDC00;" width="60.667" height="111.76"/>
<rect x="265.67" y="252.25" style="fill:#FFC000;" width="60.667" height="148.08"/>
<rect x="185.67" y="226.76" style="fill:#FFDC00;" width="60.667" height="173.57"/>
<rect x="345.67" y="189" style="fill:#FFC000;" width="60.667" height="211.33"/>
<path style="fill:#FFFFFF;" d="M376,110.333c-11.046,0-20,8.954-20,20c0,1.222,0.127,2.413,0.337,3.574l-53.619,45.513
	c-2.102-0.751-4.357-1.181-6.718-1.181c-4.884,0-9.356,1.756-12.829,4.664l-47.49-17.357C234.043,156.15,225.866,149,216,149
	c-11.046,0-20,8.954-20,20c0,1.289,0.133,2.546,0.366,3.768l-53.828,46.588c-2.051-0.71-4.245-1.115-6.538-1.115
	c-11.046,0-20,8.954-20,20s8.954,20,20,20s20-8.954,20-20c0-1.289-0.133-2.546-0.366-3.768l53.827-46.588
	c2.052,0.711,4.246,1.116,6.539,1.116c4.884,0,9.356-1.756,12.829-4.664l47.49,17.357c1.639,9.397,9.816,16.547,19.682,16.547
	c11.046,0,20-8.954,20-20c0-1.222-0.127-2.413-0.337-3.574l53.619-45.513c2.103,0.751,4.357,1.181,6.718,1.181
	c11.046,0,20-8.954,20-20S387.046,110.333,376,110.333z"/>
<path style="fill:#E0E0E0;" d="M376,110.333c-11.046,0-20,8.954-20,20c0,1.222,0.127,2.413,0.337,3.574l-53.619,45.513
	c-2.102-0.751-4.357-1.181-6.718-1.181c-4.884,0-9.356,1.756-12.829,4.664l-27.505-10.053v21.294l20.652,7.548
	c1.639,9.397,9.816,16.547,19.682,16.547c11.046,0,20-8.954,20-20c0-1.222-0.127-2.413-0.337-3.574l53.619-45.513
	c2.103,0.751,4.357,1.181,6.718,1.181c11.046,0,20-8.954,20-20S387.046,110.333,376,110.333z"/>
<g>
</g>
<g>
</g>
<g>
</g>
<g>
</g>
<g>
</g>
<g>
</g>
<g>
</g>
<g>
</g>
<g>
</g>
<g>
</g>
<g>
</g>
<g>
</g>
<g>
</g>
<g>
</g>
<g>
</g>
</svg>
