<?xml version="1.0" ?><svg id="Layer_1" style="enable-background:new 0 0 468 468;" version="1.1" viewBox="0 0 468 468" xml:space="preserve" xmlns="http://www.w3.org/2000/svg" xmlns:xlink="http://www.w3.org/1999/xlink"><g><g><g><path d="M335,463H97c-16.569,0-30-13.431-30-30V100c0-16.569,13.431-30,30-30h238     c16.569,0,30,13.431,30,30v333C365,449.569,351.569,463,335,463z" style="fill:#FFE9B3;"/><path d="M87,71.714C75.35,75.833,67,86.939,67,100v333c0,13.061,8.35,24.167,20,28.286V71.714z" style="fill:#F2DBA7;"/><path d="M335,468H97c-19.299,0-35-15.701-35-35V100c0-19.299,15.701-35,35-35h238     c19.299,0,35,15.701,35,35v333C370,452.299,354.299,468,335,468z M97,75c-13.785,0-25,11.215-25,25v333c0,13.785,11.215,25,25,25     h238c13.785,0,25-11.215,25-25V100c0-13.785-11.215-25-25-25H97z" style="fill:#333333;"/><g><rect height="50" style="fill:#C9C9C9;" width="163.469" x="134.764" y="45"/><path d="M298.233,100h-163.47c-2.762,0-5-2.238-5-5V45c0-2.762,2.238-5,5-5h163.47c2.762,0,5,2.238,5,5      v50C303.233,97.762,300.995,100,298.233,100z M139.764,90h153.47V50h-153.47V90z" style="fill:#333333;"/></g><g><rect height="40" style="fill:#E0E0E0;" width="123.506" x="154.745" y="5"/><path d="M278.251,50H154.745c-2.762,0-5-2.238-5-5V5c0-2.762,2.238-5,5-5h123.506c2.762,0,5,2.238,5,5v40      C283.251,47.762,281.013,50,278.251,50z M159.745,40h113.506V10H159.745V40z" style="fill:#333333;"/></g></g><g><ellipse cx="216" cy="185.612" rx="52.585" ry="52.612" style="fill:#ED4848;"/><path d="M180.415,185.612c0-26.16,19.087-47.851,44.085-51.918c-2.768-0.45-5.605-0.694-8.5-0.694     c-29.042,0-52.585,23.555-52.585,52.612s23.543,52.612,52.585,52.612c2.895,0,5.732-0.244,8.5-0.694     C199.501,233.463,180.415,211.772,180.415,185.612z" style="fill:#CC4040;"/><path d="M216,243.224c-31.753,0-57.585-25.845-57.585-57.612C158.415,153.845,184.247,128,216,128     s57.585,25.845,57.585,57.611C273.585,217.379,247.753,243.224,216,243.224z M216,138c-26.238,0-47.585,21.358-47.585,47.611     c0,26.254,21.347,47.612,47.585,47.612s47.585-21.358,47.585-47.612C263.585,159.358,242.238,138,216,138z" style="fill:#333333;"/><g><path d="M191,190.612c-2.762,0-5-2.238-5-5s2.238-5,5-5l50-0.001c2.762,0,5,2.238,5,5s-2.238,5-5,5      L191,190.612z" style="fill:#333333;"/><path d="M216,215.624c-2.762,0-5-2.238-5-5V160.6c0-2.762,2.238-5,5-5s5,2.238,5,5v50.024      C221,213.386,218.762,215.624,216,215.624z" style="fill:#333333;"/></g></g><g><g><g><circle cx="134.833" cy="293" r="30" style="fill:#29B6F6;"/><path d="M116.833,293c0-14.514,10.307-26.619,24-29.399c-1.939-0.394-3.945-0.601-6-0.601       c-16.569,0-30,13.431-30,30s13.431,30,30,30c2.055,0,4.061-0.208,6-0.601C127.14,319.619,116.833,307.514,116.833,293z" style="fill:#00AAE5;"/><path d="M134.833,328c-19.299,0-35-15.701-35-35s15.701-35,35-35s35,15.701,35,35       S154.132,328,134.833,328z M134.833,268c-13.785,0-25,11.215-25,25s11.215,25,25,25s25-11.215,25-25S148.618,268,134.833,268z" style="fill:#333333;"/><path d="M130.718,305.414c-1.382,0-2.702-0.571-3.647-1.58l-5.488-5.854       c-1.889-2.015-1.787-5.179,0.228-7.067s5.178-1.787,7.067,0.228l1.816,1.938l10.073-10.888c1.876-2.027,5.04-2.15,7.065-0.274       c2.027,1.875,2.15,5.038,0.274,7.065l-13.719,14.828c-0.942,1.019-2.266,1.6-3.653,1.604       C130.729,305.414,130.724,305.414,130.718,305.414z" style="fill:#333333;"/></g><g><path d="M327.167,279H197.833c-2.762,0-5-2.238-5-5s2.238-5,5-5h129.334c2.762,0,5,2.238,5,5       S329.929,279,327.167,279z" style="fill:#333333;"/><path d="M327.167,317H197.833c-2.762,0-5-2.238-5-5s2.238-5,5-5h129.334c2.762,0,5,2.238,5,5       S329.929,317,327.167,317z" style="fill:#333333;"/></g></g><g><g><circle cx="134.833" cy="393" r="30" style="fill:#29B6F6;"/><path d="M117.833,393c0-14.335,10.058-26.315,23.5-29.286c-2.094-0.463-4.267-0.714-6.5-0.714       c-16.569,0-30,13.431-30,30s13.431,30,30,30c2.233,0,4.406-0.251,6.5-0.714C127.891,419.315,117.833,407.335,117.833,393z" style="fill:#00AAE5;"/><path d="M134.833,428c-19.299,0-35-15.701-35-35s15.701-35,35-35s35,15.701,35,35       S154.132,428,134.833,428z M134.833,368c-13.785,0-25,11.215-25,25s11.215,25,25,25s25-11.215,25-25S148.618,368,134.833,368z" style="fill:#333333;"/><path d="M130.718,405.414c-1.382,0-2.702-0.571-3.647-1.58l-5.488-5.854       c-1.889-2.015-1.787-5.179,0.228-7.067s5.178-1.787,7.067,0.228l1.816,1.938l10.073-10.888c1.876-2.027,5.04-2.15,7.065-0.274       c2.027,1.875,2.15,5.038,0.274,7.065l-13.719,14.828c-0.942,1.019-2.266,1.6-3.653,1.604       C130.729,405.414,130.724,405.414,130.718,405.414z" style="fill:#333333;"/></g><g><path d="M327.167,379H197.833c-2.762,0-5-2.238-5-5s2.238-5,5-5h129.334c2.762,0,5,2.238,5,5       S329.929,379,327.167,379z" style="fill:#333333;"/><path d="M327.167,417H197.833c-2.762,0-5-2.238-5-5s2.238-5,5-5h129.334c2.762,0,5,2.238,5,5       S329.929,417,327.167,417z" style="fill:#333333;"/></g></g></g></g><g><g><g><g><path d="M329.282,413c-14.616,0-26.465,11.193-26.465,25s11.849,25,26.465,25h22.626v-50H329.282z" style="fill:#FFFFFF;"/><path d="M351.908,468h-22.626c-17.35,0-31.465-13.458-31.465-30s14.115-30,31.465-30h22.626       c2.762,0,5,2.238,5,5v50C356.908,465.762,354.67,468,351.908,468z M329.282,418c-11.836,0-21.465,8.972-21.465,20       s9.629,20,21.465,20h17.626v-40H329.282z" style="fill:#333333;"/></g><g><path d="M374.535,413h-22.626v50h22.626C389.151,463,401,451.807,401,438S389.151,413,374.535,413z" style="fill:#29B6F6;"/><path d="M374.535,468h-22.627c-2.762,0-5-2.238-5-5v-50c0-2.762,2.238-5,5-5h22.627       c17.35,0,31.465,13.458,31.465,30S391.885,468,374.535,468z M356.908,458h17.627c11.836,0,21.465-8.972,21.465-20       s-9.629-20-21.465-20h-17.627V458z" style="fill:#333333;"/></g></g></g><g><g><g><path d="M337.587,337.323c-10.335-10.335-26.628-10.799-36.391-1.036       c-9.763,9.763-9.299,26.056,1.036,36.391l15.999,15.999l35.355-35.355L337.587,337.323z" style="fill:#FFFFFF;"/><path d="M318.23,393.678c-1.279,0-2.56-0.488-3.535-1.465l-15.999-15.999       c-12.269-12.269-12.733-31.766-1.036-43.462s31.195-11.233,43.462,1.036l15.999,15.999c1.953,1.952,1.953,5.118,0,7.07       l-35.355,35.355C320.79,393.189,319.51,393.678,318.23,393.678z M318.438,334.266c-5.054,0-9.989,1.839-13.708,5.558       c-7.797,7.797-7.332,20.95,1.037,29.32l12.463,12.463l28.284-28.284l-12.463-12.464       C329.673,336.48,323.984,334.266,318.438,334.266z" style="fill:#333333;"/></g><g><path d="M369.585,369.322l-15.999-15.999l-35.355,35.355l15.999,15.999       c10.335,10.335,26.628,10.799,36.391,1.036C380.385,395.95,379.921,379.657,369.585,369.322z" style="fill:#29B6F6;"/><path d="M353.379,417.726c-8.11,0-16.357-3.187-22.684-9.514l-16-15.999       c-0.938-0.938-1.465-2.209-1.465-3.535s0.526-2.598,1.465-3.535l35.355-35.355c1.951-1.953,5.119-1.953,7.07,0l15.999,15.999       c5.906,5.905,9.286,13.648,9.519,21.804c0.235,8.263-2.777,15.954-8.482,21.659       C368.491,414.913,360.996,417.726,353.379,417.726z M325.302,388.678l12.464,12.464c8.369,8.367,21.521,8.833,29.32,1.036       c3.739-3.739,5.713-8.819,5.557-14.304c-0.159-5.592-2.501-10.925-6.593-15.018l-12.464-12.463L325.302,388.678z" style="fill:#333333;"/></g></g></g></g></g><g/><g/><g/><g/><g/><g/><g/><g/><g/><g/><g/><g/><g/><g/><g/></svg>